<svg width="600" height="550" viewBox="0 0 600 550" fill="none" xmlns="http://www.w3.org/2000/svg">
<g clip-path="url(#clip0)">
<path d="M56.5527 175.24C54.5587 173.971 52.0818 173.796 49.9271 174.774C47.7724 175.752 46.2881 177.724 45.9565 180.049L45.157 185.651C45.0243 186.58 45.1937 187.507 45.6464 188.332C46.0992 189.157 46.793 189.801 47.6531 190.197C48.5132 190.591 49.4584 190.698 50.3866 190.507C51.3147 190.316 52.1384 189.844 52.7686 189.143L52.8107 189.095C54.4043 187.347 56.6768 186.325 59.0562 186.289C59.67 186.28 60.2633 186.147 60.8094 185.899C61.1064 185.764 61.3896 185.595 61.6547 185.394C62.407 184.823 62.9421 184.044 63.2024 183.14C63.4624 182.238 63.4228 181.296 63.0881 180.417C62.7533 179.539 62.1549 178.806 61.3576 178.298L56.5527 175.24Z" fill="#5BBA6F"/>
<path d="M43.9064 180.972C44.5933 180.277 44.9189 179.324 44.823 178.289C44.7318 177.304 44.2644 176.358 43.5064 175.625C42.7486 174.892 41.7828 174.451 40.7868 174.383C39.7406 174.312 38.7864 174.656 38.1011 175.352C36.7217 176.75 36.9012 179.148 38.502 180.699C39.7783 181.933 41.5761 182.261 42.9513 181.637C43.3025 181.478 43.6261 181.256 43.9064 180.972Z" fill="#5BBA6F"/>
<path d="M47.7745 175.112C49.8677 174.162 50.6819 171.467 49.5893 169.105C48.4965 166.742 45.9045 165.593 43.8113 166.543C41.7183 167.492 40.9045 170.188 41.9974 172.55C43.0899 174.913 45.6816 176.062 47.7745 175.112Z" fill="#5BBA6F"/>
<path d="M54.8174 173.189L54.8176 173.189C55.1885 173.149 55.5404 173.051 55.8675 172.902C57.394 172.209 58.3727 170.434 58.1581 168.485C58.0347 167.363 57.537 166.343 56.7569 165.613C55.9404 164.85 54.9161 164.491 53.8723 164.604C52.8284 164.717 51.9062 165.286 51.2752 166.206C50.6724 167.085 50.4086 168.187 50.5324 169.309C50.7932 171.676 52.7155 173.416 54.8174 173.189V173.189Z" fill="#5BBA6F"/>
<path d="M62.5804 169.061L62.5796 169.061C60.6476 168.66 58.7005 170.098 58.239 172.266C57.7792 174.435 58.9757 176.528 60.9059 176.931C61.61 177.078 62.3163 176.981 62.952 176.692C64.0599 176.189 64.9535 175.106 65.2477 173.726C65.7074 171.557 64.511 169.465 62.5804 169.061V169.061Z" fill="#5BBA6F"/>
</g>
<g clip-path="url(#clip1)">
<path d="M317.103 392.779C315.109 391.51 312.632 391.336 310.477 392.313C308.323 393.291 306.838 395.263 306.507 397.588L305.707 403.19C305.575 404.119 305.744 405.047 306.197 405.871C306.649 406.696 307.343 407.341 308.203 407.736C309.064 408.13 310.009 408.238 310.937 408.047C311.865 407.856 312.689 407.384 313.319 406.682L313.361 406.635C314.955 404.886 317.227 403.865 319.607 403.829C320.22 403.819 320.814 403.686 321.36 403.438C321.657 403.303 321.94 403.134 322.205 402.933C322.957 402.362 323.492 401.583 323.753 400.68C324.013 399.777 323.973 398.835 323.638 397.957C323.304 397.078 322.705 396.345 321.908 395.838L317.103 392.779Z" fill="#5BBA6F"/>
<path d="M304.457 398.511C305.144 397.816 305.469 396.863 305.373 395.828C305.282 394.844 304.815 393.897 304.057 393.164C303.299 392.431 302.333 391.99 301.337 391.922C300.291 391.852 299.337 392.196 298.651 392.891C297.272 394.289 297.452 396.687 299.052 398.238C300.329 399.472 302.126 399.801 303.502 399.177C303.853 399.017 304.176 398.796 304.457 398.511Z" fill="#5BBA6F"/>
<path d="M308.325 392.651C310.418 391.701 311.232 389.007 310.14 386.644C309.047 384.281 306.455 383.132 304.362 384.082C302.269 385.032 301.455 387.727 302.548 390.09C303.64 392.452 306.232 393.601 308.325 392.651Z" fill="#5BBA6F"/>
<path d="M315.368 390.729L315.368 390.729C315.739 390.688 316.091 390.59 316.418 390.441C317.944 389.749 318.923 387.973 318.708 386.024C318.585 384.902 318.087 383.882 317.307 383.153C316.491 382.389 315.466 382.031 314.423 382.143C313.379 382.256 312.456 382.825 311.825 383.745C311.223 384.624 310.959 385.726 311.083 386.848C311.344 389.215 313.266 390.956 315.368 390.729V390.729Z" fill="#5BBA6F"/>
<path d="M323.131 386.601L323.13 386.6C321.198 386.199 319.251 387.637 318.789 389.806C318.33 391.975 319.526 394.067 321.456 394.47C322.16 394.617 322.867 394.52 323.502 394.231C324.61 393.729 325.504 392.645 325.798 391.266C326.258 389.097 325.061 387.004 323.131 386.601V386.601Z" fill="#5BBA6F"/>
</g>
<g clip-path="url(#clip2)">
<path d="M429.877 52.3021H351.138C343.959 52.3021 338.166 57.9876 338.166 65.0331V317.58C338.166 322.792 342.509 327.055 347.819 327.055C353.13 327.055 357.473 322.792 357.473 317.58C357.473 312.369 361.817 308.106 367.127 308.106H376.781C382.091 308.106 386.435 312.369 386.435 317.58C386.435 322.792 390.779 327.055 396.089 327.055H405.743C411.053 327.055 415.396 322.792 415.396 317.58C415.396 312.369 419.74 308.106 425.05 308.106H429.877" fill="#FF9100"/>
<path d="M140.262 52.3021H219.001C226.18 52.3021 231.973 57.9876 231.973 65.0331V317.58C231.973 322.792 227.63 327.055 222.319 327.055C217.009 327.055 212.666 322.792 212.666 317.58C212.666 312.369 208.322 308.106 203.012 308.106H193.358C188.048 308.106 183.704 312.369 183.704 317.58C183.704 322.792 179.36 327.055 174.05 327.055H164.396C159.086 327.055 154.742 322.792 154.742 317.58C154.742 312.369 150.399 308.106 145.089 308.106H140.262" fill="#FF9100"/>
<path d="M231.973 80.7248H338.166V298.632H231.973V80.7248Z" fill="#5BBA6F"/>
<path d="M159.871 104.41H168.922V180.204H159.871V104.41Z" fill="#FF8500"/>
<path d="M400.916 104.41H410.569V180.204H400.916V104.41Z" fill="#FF8500"/>
<path d="M231.973 61.7763H338.166V80.7248H231.973V61.7763Z" fill="#453026"/>
<path d="M338.166 184.941H289.896V80.7248H280.242V184.941H231.973V194.415H280.242V298.632H289.896V194.415H338.166V184.941Z" fill="#453026"/>
<path d="M178.877 208.627V325.752C181.833 324.094 183.704 320.955 183.704 317.58C183.704 314.206 185.575 311.127 188.531 309.408V208.627H178.877Z" fill="#FF8500"/>
<path d="M149.916 251.261V309.408C152.871 311.067 154.742 314.206 154.742 317.58C154.742 320.955 156.614 324.034 159.569 325.752V251.261H149.916Z" fill="#FF8500"/>
<path d="M207.839 279.683V309.408C210.794 311.067 212.666 314.206 212.666 317.58C212.666 320.955 214.537 324.034 217.492 325.752V279.683H207.839Z" fill="#FF8500"/>
<path d="M381.608 208.627V309.408C384.563 311.067 386.435 314.206 386.435 317.58C386.435 320.955 388.306 324.034 391.262 325.752V208.627H381.608Z" fill="#FF8500"/>
<path d="M410.569 251.261V325.752C413.525 324.094 415.396 320.955 415.396 317.58C415.396 314.206 417.268 311.127 420.223 309.408V251.261H410.569Z" fill="#FF8500"/>
<path d="M352.646 270.209V325.752C355.602 324.094 357.473 320.955 357.473 317.58C357.473 314.206 359.345 311.127 362.3 309.408V270.209H352.646Z" fill="#FF8500"/>
</g>
<path d="M397.368 333.277L403.611 346.88C403.611 346.88 409.298 346.177 409.075 349.273C408.852 352.368 403.5 351.821 402.609 350.396C402.609 350.396 402.832 354.673 399.932 353.911C397.034 353.14 399.821 348.306 399.821 348.306L395.808 337.994L397.368 333.277Z" fill="#E4E4E4"/>
<path d="M384.391 338.691C384.845 340.1 393.207 330.866 394.291 330.491C393.222 330.866 385.364 338.937 386.059 340.76C386.878 342.928 393.417 334.995 394.975 333.418C389.395 339.055 394.368 343.017 396.567 344.17C398.838 345.353 398.916 343.224 398.916 343.224C392.459 339.085 397.864 334.749 401.719 336.168C405.573 337.587 404.061 341.963 402.496 341.864C400.931 341.765 399.208 343.007 400.477 343.805C401.746 344.614 404.29 344.929 406.156 341.815C408.269 338.277 404.946 334.364 404.946 334.364C404.946 334.364 404.866 331.871 410.288 330.284C408.693 327.998 406.763 323.691 405.123 321.434C400.686 323.691 397.664 325.721 397.664 325.721C390.564 328.333 383.708 336.582 384.391 338.691" fill="#EEBF9B"/>
<path d="M485.509 297.157C485.509 297.157 448.5 306.592 440.76 308.074C433.022 309.567 404.255 320.985 404.255 320.985C404.255 320.985 405.601 330.332 411.321 333.277C411.321 333.277 479.117 321.152 489.883 317.352C489.883 317.352 490.721 298.806 485.509 297.157Z" fill="#FF6D00"/>
<path d="M582.871 377.688C582.871 377.688 598.281 390.779 597.285 393.09C596.29 395.401 589.531 389.012 589.531 389.012C589.531 389.012 597.037 395.358 595.583 396.992C594.12 398.626 586.823 391.448 586.823 391.448C586.823 391.448 593.801 397.992 592.079 399.922C590.357 401.851 582.493 392.701 582.493 392.701C582.493 392.701 581.279 399.846 579.835 399.273C578.382 398.701 575.007 383.983 575.007 383.983L582.871 377.688" fill="#DDBB98"/>
<path d="M524.807 260.444C524.807 260.444 548.471 272.988 539.984 305.447C539.984 305.447 517.814 296.249 519.6 263.513L524.807 260.444Z" fill="#453026"/>
<path d="M540.692 545.756C536.197 544.683 534.237 537.79 533.389 531.724C532.671 526.621 532.732 522.101 532.732 522.101L512.257 400.171L538.52 393.083L542.358 519.846C542.358 519.846 543.58 525.041 544.308 530.795C545.267 538.355 545.378 546.871 540.692 545.756" fill="#EEBF9B"/>
<path d="M512.257 400.632L510.43 525.486L510.36 530.445C510.34 531.767 509.242 532.828 507.894 532.828H474.775C473.265 532.828 472.467 531.043 473.514 529.974C475.436 528.012 479.795 525.436 489.661 523.574C492.547 523.027 495.902 522.547 499.806 522.159L486.034 396.044L512.257 400.632" fill="#EEBF9B"/>
<path d="M540.687 545.758C536.186 544.703 534.224 537.927 533.375 531.965C535.337 534.007 537.885 536.208 539.746 536.208C541.384 536.208 543.033 533.692 544.307 531.052C545.268 538.483 545.379 546.854 540.687 545.758" fill="#435F44"/>
<path d="M510.447 525.781L510.377 530.541C510.357 531.81 509.258 532.828 507.91 532.828H474.776C473.265 532.828 472.467 531.115 473.514 530.089C475.437 528.205 479.798 525.733 489.669 523.946L494.394 528.245L510.447 525.781" fill="#435F44"/>
<path d="M487.202 366.437C481.798 385.533 488.549 447.452 488.549 447.452C488.549 447.452 516.246 459.686 546.648 447.452C546.648 447.452 546.989 388.55 533.546 366.437H487.202" fill="#435F44"/>
<path d="M508.666 288.934C514.923 288.482 528.663 290.262 535.422 295.571C535.422 295.571 525.784 316.956 532.714 324.576C532.714 324.576 529.004 342.815 532.885 352.096C536.776 361.378 544.779 388.064 544.839 394.031C544.839 394.031 500.252 413.922 477.262 390.715C477.262 390.715 484.871 359.058 486.899 354.083C488.929 349.107 490.113 336.68 486.899 331.37C483.687 326.071 481.658 325.569 481.321 320.594C480.982 315.629 488.087 309.159 488.087 309.159L485.547 296.731C485.547 296.731 499.479 289.603 508.666 288.934Z" fill="#FF6000"/>
<path d="M521.302 258.668C521.302 258.668 529.336 259.313 525.87 266.122C522.394 272.931 517.084 264.276 517.084 264.276L521.302 258.668Z" fill="#A94F46"/>
<path d="M494.247 225.731C485.802 227.145 469.986 236.994 477.356 264.331C482.839 284.667 496.498 284.971 504.097 283.704C508.889 282.909 526.547 274.376 523.333 255.493C520.129 236.611 506.915 223.629 494.247 225.731" fill="#EEBF9B"/>
<path d="M483.791 259.943C485.064 259.61 486.415 260.218 486.808 261.311C487.2 262.404 486.487 263.564 485.214 263.906C483.94 264.239 482.589 263.63 482.197 262.538C481.804 261.445 482.518 260.285 483.791 259.943Z" fill="#41444D"/>
<path d="M505.906 256.394C507.022 256.051 508.195 256.67 508.544 257.755C508.884 258.849 508.263 260.01 507.148 260.353C506.032 260.686 504.849 260.077 504.51 258.983C504.161 257.888 504.791 256.727 505.906 256.394" fill="#41444D"/>
<path d="M496.142 269.918L496.019 269.901L492.641 268.893C492.413 268.832 492.298 268.615 492.365 268.406C492.441 268.206 492.669 268.093 492.898 268.163L496.276 269.162C496.495 269.232 496.618 269.449 496.552 269.649C496.494 269.814 496.323 269.918 496.142 269.918" fill="#E29280"/>
<path d="M493.543 266.366L493.461 266.356C493.177 266.317 492.977 266.103 493.024 265.869C493.024 265.84 493.543 262.85 491.796 259.88C491.666 259.666 491.784 259.413 492.044 259.306C492.292 259.198 492.611 259.286 492.74 259.5C494.642 262.724 494.087 265.859 494.063 265.995C494.016 266.21 493.791 266.366 493.543 266.366Z" fill="#E29280"/>
<path d="M480.161 256.299C479.997 256.299 479.837 256.229 479.747 256.107C479.607 255.931 479.679 255.686 479.907 255.573L483.161 253.988C483.39 253.874 483.689 253.936 483.828 254.119C483.967 254.303 483.895 254.54 483.667 254.653L480.413 256.238L480.161 256.299Z" fill="#41444D"/>
<path d="M509.972 250.378H509.95L504.867 250.135C504.597 250.124 504.403 249.902 504.414 249.648C504.425 249.384 504.651 249.194 504.91 249.194L509.993 249.437C510.252 249.458 510.457 249.669 510.447 249.934C510.436 250.188 510.22 250.378 509.972 250.378" fill="#41444D"/>
<path d="M489.791 238.817C489.791 238.817 479.784 258.504 474.222 259.852C474.222 259.852 464.656 228.954 489.791 222.59C514.931 216.236 528.728 235.625 526.505 256.194L523.72 255.49C523.72 255.49 508.927 238.817 489.791 238.817Z" fill="#453026"/>
<path d="M521.911 254.404C521.911 254.404 529.733 251.77 529.117 258.931C528.491 266.093 522.46 262.507 522.46 262.507L521.911 254.404" fill="#EEBF9B"/>
<path d="M522.514 255.178L522.634 259.804C522.634 259.804 525.438 260.39 525.529 257.451C525.621 254.522 522.514 255.178 522.514 255.178Z" fill="#E29280"/>
<path d="M494.759 275.623L508.637 270.511C508.637 270.511 506.115 283.62 494.759 275.623Z" fill="white"/>
<path d="M502.479 278.159L504.973 289.067C504.973 289.067 501.073 290.58 499.586 291.586C499.586 291.586 503.487 303.5 505.671 303.669C507.856 303.838 519.497 289.913 519.497 289.913L512.395 288.231L509.672 275.84L502.479 278.159" fill="#EEBF9B"/>
<path d="M535.595 295.973C535.595 295.973 543.579 300.931 548.301 309.1C553.023 317.269 584.058 378.183 584.058 378.183L574.393 386.57C574.393 386.57 534.465 327.519 532.894 324.937C532.894 324.937 522.889 314.402 535.595 295.973" fill="#FF6000"/>
<path d="M374.821 526.097C374.821 526.097 359.404 531.566 357.227 514.924C355.048 498.282 376.329 497.122 376.497 491.493C376.664 485.864 368.956 480.401 361.583 488.017C361.583 488.017 355.048 485.533 350.691 489.175C346.334 492.818 349.35 498.944 349.35 498.944C349.35 498.944 343.15 498.944 343.318 504.242C343.485 509.541 348.513 511.692 348.513 511.692C348.513 511.692 343.485 515.335 345.161 520.137C346.837 524.938 351.361 523.651 351.361 523.651C351.361 523.651 347.675 530.981 354.545 532.926C361.415 534.872 374.15 530.44 374.15 530.44L374.821 526.097" fill="#58392F"/>
<path d="M412.702 473.726C417.221 473.708 429.271 457.974 435.22 457.641C441.168 457.309 441.847 462.628 444.67 462.628C447.494 462.628 448.285 467.835 444.67 469.609C441.056 471.381 434.165 467.725 434.165 467.725C434.165 467.725 424.111 487.67 413.493 487.226L412.702 473.726" fill="#704736"/>
<path d="M412.646 459.663C412.226 465.733 424.109 515.567 413.072 529.915C412.734 530.358 412.375 530.761 411.995 531.125C411.279 531.831 410.48 532.399 409.6 532.828L400.491 532.796L394.043 532.775H394.016L370.466 532.697L371.752 526.355L372.462 522.867L383.547 468.25C383.547 468.25 386.708 447.772 389.184 440.724C390.997 435.578 403.409 419.249 411.096 411.737C413.714 409.174 415.792 407.642 416.706 407.919C417.457 408.15 418.627 409.147 419.846 410.7C424.482 416.625 429.827 430.611 415.352 440.724H423.696C423.696 440.724 413.099 453.056 412.646 459.663" fill="#7F503D"/>
<path d="M391.447 437.679C395.43 440.196 390.132 475.408 381.171 473.543C374.916 472.241 378.937 465.14 378.937 465.14C378.937 465.14 375.362 471.291 372.235 470.192C369.107 469.094 372.235 462.943 372.235 462.943C372.235 462.943 369.107 467.337 365.98 464.481C362.852 461.624 382.065 431.747 391.447 437.679Z" fill="#7F503D"/>
<path d="M416.322 440.449C416.322 440.449 422.079 436.364 427.836 437.799C433.593 439.234 436.753 447.073 434.044 448.066C431.335 449.06 425.804 441.112 422.417 441.222C419.031 441.332 416.322 440.449 416.322 440.449" fill="#D4584B"/>
<path d="M419.942 410.573C419.903 412.25 418.989 413.719 416.656 413.802C413.873 413.896 412.017 412.951 411.495 411.563C414.023 409.115 416.029 407.653 416.911 407.917C417.636 408.138 418.766 409.09 419.942 410.573Z" fill="#2F2F2F"/>
<path d="M398.325 435.355C397.14 435.877 396.672 437.126 397.282 438.144C397.89 439.162 399.344 439.564 400.53 439.041C401.716 438.518 402.183 437.269 401.574 436.251C400.965 435.233 399.51 434.831 398.325 435.355Z" fill="#2F2F2F"/>
<path d="M413.305 530.422C412.977 530.869 412.628 531.277 412.259 531.644L407.875 500.853L413.305 530.422" fill="#58392F"/>
<path d="M417.645 500.842L419.761 526.737C419.761 526.737 422.701 525.233 426.155 525.567C429.608 525.902 430.2 533.128 430.2 533.128L413.987 533.42L407.875 499.668L417.645 500.842" fill="#7F503D"/>
<path d="M398.314 509.847C397.087 509.502 395.847 509.295 394.615 509.204C385.745 508.523 377.448 513.571 373.743 521.447L372.976 523.076L372.276 526.502L374.662 521.447C378.101 514.142 385.798 509.457 394.022 510.086C395.168 510.178 396.321 510.365 397.454 510.684C406.53 513.246 404.498 532.426 397.454 532.724C396.574 532.763 395.475 532.789 394.228 532.808L400.579 532.828C406.243 529.019 407.044 512.306 398.314 509.847" fill="#58392F"/>
<path d="M400.626 529.75C400.626 529.75 404.2 527.95 406.195 528.1C408.189 528.25 409.685 532.828 409.685 532.828L393.394 532.712L400.626 529.75Z" fill="#704736"/>
<path d="M374.609 521.28C378.071 513.894 385.813 509.155 394.09 509.792C395.243 509.88 396.402 510.072 397.544 510.396C406.678 512.984 404.632 532.392 397.544 532.694C390.456 532.996 369.26 532.693 369.26 532.693L374.609 521.28" fill="#7F503D"/>
<path d="M232.899 548.224H244.966V531.644H232.899V548.224Z" fill="#6C757D"/>
<path d="M21.1177 548.224H33.185V531.644H21.1177V548.224Z" fill="#6C757D"/>
<path d="M16.6442 533.42H249.439C253.633 533.42 257.034 530.095 257.034 525.989V461.771H9.05042V525.989C9.05042 530.095 12.45 533.42 16.6442 533.42Z" fill="#DEE2E6"/>
<path d="M9.05042 486.641H257.034V478.351H9.05042V486.641Z" fill="#CED4DA"/>
<path d="M51.6753 364.068H215.013C235.221 364.068 251.603 380.132 251.603 399.953V458.219H15.0841V399.953C15.0841 380.132 31.4661 364.068 51.6753 364.068Z" fill="#CED4DA"/>
<path d="M8.56209 478.351H257.523C262.251 478.351 266.084 474.574 266.084 469.911V461.319C266.084 456.666 262.251 452.889 257.523 452.889H8.56209C3.83367 452.889 0 456.666 0 461.319V469.911C0 474.574 3.83367 478.351 8.56209 478.351Z" fill="#DEE2E6"/>
<path d="M257.034 452.889H213.626C211.341 452.889 209.869 450.522 210.92 448.535C215.382 440.109 227.236 422.051 248.444 418.069C252.95 417.216 257.034 421.189 257.034 426.285V452.889" fill="#CED4DA"/>
<path d="M222.245 444.041C227.53 436.656 236.139 427.9 248.433 425.089C249.105 424.928 249.789 425.422 249.793 426.107V426.127V444.675C249.793 445.28 249.294 445.784 248.677 445.784H223.163C222.258 445.784 221.721 444.766 222.245 444.041" fill="#DEE2E6"/>
<path d="M9.05042 452.889H52.4574C54.7422 452.889 56.2156 450.522 55.1633 448.535C50.7013 440.109 38.8491 422.051 17.6404 418.069C13.1344 417.216 9.05042 421.189 9.05042 426.285V452.889" fill="#CED4DA"/>
<path d="M43.8396 444.041C38.5545 436.656 29.9452 427.9 17.6507 425.089C16.9804 424.928 16.2959 425.422 16.2908 426.107V426.127V444.675C16.2908 445.28 16.7912 445.784 17.4076 445.784H42.9211C43.8264 445.784 44.3635 444.766 43.8396 444.041Z" fill="#DEE2E6"/>
<path d="M163.328 436.776L142.699 427.427L121.88 452.885L170.149 453.481L163.328 436.776" fill="#435F44"/>
<path d="M94.703 428.776C94.703 428.776 85.9605 453.481 107.175 453.481C128.389 453.481 146.014 449.651 146.014 449.651L142.649 425.651L94.703 428.776Z" fill="#435F44"/>
<path d="M114.741 345.712C111.332 345.712 103.464 346.647 91.3104 358.59C89.3498 389.924 89.0394 413.557 92.9698 436.901C111.69 429.902 128.976 424.999 145.411 428.96C141.356 405.174 140.794 394.676 134.522 370.582L138.216 356.423C138.216 356.423 128.236 345.712 114.741 345.712Z" fill="#FF6000"/>
<path d="M104.828 278.598C114.119 276.738 134.43 280.584 137.864 311.233C140.418 334.03 126.436 339.66 118.074 341.334C112.81 342.389 91.1298 340.605 86.8143 320.168C82.4998 299.732 90.8921 281.39 104.828 278.598" fill="#EEBF9B"/>
<path d="M118.863 324.594L123.69 321.434C123.69 321.434 123.682 326.393 118.863 324.594Z" fill="#E29280"/>
<path d="M118.968 339.199V345.755C118.968 345.755 122.502 346.402 123.806 347.023C123.806 347.023 128.923 359.919 121.371 362.018C112.017 364.618 106.796 347.845 106.796 347.845L110.54 346.525L110.635 339.199H118.968" fill="#EEBF9B"/>
<path d="M87.268 314.329C87.268 314.329 79.0324 314.849 81.2211 321.46C83.4108 328.071 88.6948 323.361 88.6948 323.361L87.268 314.329" fill="#EEBF9B"/>
<path d="M87.2153 316.697L88.0914 321.17C88.0914 321.17 85.3105 322.389 84.5758 319.594C83.8412 316.798 87.2153 316.697 87.2153 316.697Z" fill="#E29280"/>
<path d="M156.311 541.614C153.911 541.168 151.118 540.782 147.868 540.474L146.448 525.13H137.567L139.025 544.053L139.082 548.067C139.097 549.138 140.011 550 141.132 550H168.703C169.96 550 170.625 548.553 169.753 547.69C168.153 546.104 164.525 543.121 156.311 541.614" fill="#EEBF9B"/>
<path d="M139.377 544.121L139.434 548.089C139.448 549.148 140.352 550 141.461 550H168.719C169.962 550 170.619 548.569 169.758 547.717C168.176 546.149 164.589 543.199 156.467 541.71L152.583 546.178L139.377 544.121Z" fill="#435F44"/>
<path d="M136.314 436.91C148.74 437.463 149.635 537.565 149.635 537.565H136.314C136.314 537.565 113.34 435.863 136.314 436.91" fill="#517550"/>
<path d="M183.115 541.614C180.759 541.168 178.018 540.782 174.829 540.474L173.434 525.13H164.719L166.149 544.053L166.206 548.067C166.22 549.138 167.117 550 168.218 550H195.278C196.512 550 197.164 548.553 196.309 547.69C194.738 546.104 191.177 543.121 183.115 541.614" fill="#EEBF9B"/>
<path d="M165.925 544.121L165.982 548.089C165.996 549.148 166.9 550 168.009 550H195.267C196.51 550 197.168 548.569 196.306 547.717C194.724 546.149 191.137 543.199 183.015 541.71L179.131 546.178L165.925 544.121Z" fill="#435F44"/>
<path d="M162.862 436.91C175.288 437.463 176.183 537.565 176.183 537.565H162.862C162.862 537.565 139.888 435.863 162.862 436.91Z" fill="#517550"/>
<path d="M127.035 291.748C127.035 291.748 106.54 315.22 84.1701 314.918C84.1701 314.918 79.3949 280.478 107.803 276.72C136.211 272.964 136.964 307.169 136.964 307.169C136.964 307.169 133.762 298.608 127.035 291.748" fill="#797E8F"/>
<path d="M129.335 318.474C127.558 318.474 125.887 317.534 124.897 315.908L125.74 315.335C126.696 316.902 128.435 317.686 130.166 317.329C131.898 316.975 133.232 315.565 133.564 313.737L134.551 313.935C134.141 316.192 132.495 317.932 130.357 318.371C130.015 318.44 129.673 318.474 129.335 318.474" fill="#3F434C"/>
<path d="M107.012 321.434C105.235 321.434 103.563 320.492 102.572 318.869L103.417 318.296C104.372 319.862 106.111 320.645 107.842 320.29C109.575 319.936 110.909 318.526 111.24 316.697L112.226 316.896C111.817 319.153 110.171 320.893 108.032 321.331C107.691 321.4 107.349 321.434 107.012 321.434" fill="#3F434C"/>
<path d="M117.222 335.646C112.985 335.646 111.745 333.514 111.681 333.397C111.55 333.16 111.646 332.867 111.893 332.742C112.139 332.617 112.444 332.705 112.576 332.94C112.607 332.992 114.381 335.83 121.244 334.121C121.513 334.05 121.793 334.207 121.863 334.468C121.934 334.728 121.772 334.992 121.5 335.059C119.815 335.481 118.402 335.646 117.222 335.646Z" fill="#E29280"/>
<path d="M131.232 308.025C127.191 308.025 123.904 311.252 123.904 315.217C123.904 319.182 127.191 322.409 131.232 322.409C135.273 322.409 138.56 319.182 138.56 315.217C138.56 311.252 135.273 308.025 131.232 308.025ZM131.232 324.395C126.075 324.395 121.88 320.277 121.88 315.217C121.88 310.156 126.075 306.039 131.232 306.039C136.388 306.039 140.584 310.156 140.584 315.217C140.584 320.277 136.388 324.395 131.232 324.395Z" fill="#4C5155"/>
<path d="M106.795 311.578C102.624 311.578 99.2311 314.803 99.2311 318.77C99.2311 322.735 102.624 325.962 106.795 325.962C110.966 325.962 114.36 322.735 114.36 318.77C114.36 314.803 110.966 311.578 106.795 311.578ZM106.795 327.948C101.473 327.948 97.1418 323.83 97.1418 318.77C97.1418 313.709 101.473 309.592 106.795 309.592C112.119 309.592 116.45 313.709 116.45 318.77C116.45 323.83 112.119 327.948 106.795 327.948Z" fill="#4C5155"/>
<path d="M115.519 318.474L115.243 316.567L122.811 315.513L123.086 317.42L115.519 318.474" fill="#4C5155"/>
<path d="M97.9758 318.474L84.4712 316.093L84.844 314.329L98.3486 316.71L97.9758 318.474Z" fill="#4C5155"/>
<path d="M91.5651 270.407C85.8427 273.756 83.9692 281.025 87.3821 286.641C90.7959 292.259 98.2013 294.096 103.925 290.747C109.648 287.397 111.521 280.128 108.108 274.512C104.695 268.895 97.2885 267.058 91.5651 270.407Z" fill="#797E8F"/>
<path d="M91.3532 358.739C91.3532 358.739 68.8589 393.54 71.3967 417.605C74.6275 434.992 126.103 413.852 126.103 413.852L124.705 405.996C124.705 405.996 94.238 404.869 87.4335 406.895L91.6201 386.481C91.6201 386.481 98.8475 365.549 91.3532 358.739" fill="#FF6000"/>
<path d="M138.484 356.371C138.484 356.371 169.438 422.195 145.177 420.895L138.484 402.3L133.344 371.775L138.484 356.371" fill="#FF6D00"/>
<path d="M109.349 384.793H115.103C127.843 384.793 138.171 394.864 138.171 407.295H86.2812C86.2812 394.864 96.6087 384.793 109.349 384.793Z" fill="#32353D"/>
<path d="M83.8678 387.162H89.9015C89.9015 385.865 89.5347 384.568 88.821 383.589L87.279 381.47C87.056 381.164 86.6945 381.164 86.4715 381.47L84.9284 383.589C84.2158 384.568 83.8678 385.865 83.8678 387.162" fill="#32353D"/>
<path d="M91.7117 387.162H97.7453C97.7453 385.865 97.3785 384.568 96.6657 383.589L95.1224 381.47C94.8994 381.164 94.5378 381.164 94.3148 381.47L92.7715 383.589C92.0587 384.568 91.7117 385.865 91.7117 387.162Z" fill="#32353D"/>
<path d="M86.5053 386.57H95.1066C100.23 386.57 104.382 390.678 104.382 395.746C104.382 400.815 100.23 404.926 95.1066 404.926H86.5053C81.3832 404.926 77.2307 400.815 77.2307 395.746C77.2307 390.678 81.3832 386.57 86.5053 386.57Z" fill="#3F424C"/>
<path d="M85.0745 393.675C86.0745 393.675 86.8856 394.479 86.8846 395.457C86.8846 396.435 86.0745 397.228 85.0745 397.228C84.0755 397.228 83.2644 396.435 83.2644 395.457C83.2644 394.479 84.0755 393.675 85.0745 393.675Z" fill="#EED853"/>
<path d="M94.1245 393.675C95.1242 393.675 95.9351 394.479 95.9351 395.457C95.9351 396.435 95.1242 397.228 94.1245 397.228C93.1258 397.228 92.3149 396.435 92.3149 395.457C92.3149 394.479 93.1258 393.675 94.1245 393.675Z" fill="#EED853"/>
<path d="M85.0745 394.267C85.7405 394.267 86.2813 394.8 86.2813 395.452C86.2813 396.103 85.7405 396.636 85.0745 396.636C84.4085 396.636 83.8678 396.103 83.8678 395.452C83.8678 394.8 84.4085 394.267 85.0745 394.267Z" fill="#2B3645"/>
<path d="M94.1251 394.267C94.7923 394.267 95.3318 394.8 95.3318 395.452C95.3318 396.103 94.7923 396.636 94.1251 396.636C93.4591 396.636 92.9183 396.103 92.9183 395.452C92.9183 394.8 93.4591 394.267 94.1251 394.267Z" fill="#2B3645"/>
<path d="M89.6003 397.228C90.0997 397.228 90.5049 397.751 90.5049 398.413C90.5049 399.063 90.0997 399.597 89.6003 399.597C89.1 399.597 88.6948 399.063 88.6948 398.413C88.6948 397.751 89.1 397.228 89.6003 397.228Z" fill="#000002"/>
<path d="M91.1082 398.412C92.1073 398.412 92.9183 399.215 92.9183 400.189C92.9183 401.172 92.1073 401.965 91.1082 401.965C90.1091 401.965 89.2981 401.172 89.2981 400.189C89.2981 399.215 90.1091 398.412 91.1082 398.412Z" fill="#DEE2E6"/>
<path d="M88.0914 398.412C89.0905 398.412 89.9014 399.215 89.9014 400.189C89.9014 401.172 89.0905 401.965 88.0914 401.965C87.0912 401.965 86.2812 401.172 86.2812 400.189C86.2812 399.215 87.0912 398.412 88.0914 398.412Z" fill="#DEE2E6"/>
<path d="M126.253 413.808C126.253 413.808 135.441 412.467 138.171 407.295H124.897L126.253 413.808" fill="#EEBF9B"/>
<path d="M135.165 399.597C135.165 399.597 143.383 402.164 145.509 407.169C147.635 412.184 152.464 427.427 145.07 427.427C140.631 427.427 141.823 423.265 141.823 423.265C141.823 423.265 138.753 423.661 137.752 420.757C136.834 418.111 139.265 415.92 139.265 415.92C139.265 415.92 136.569 415.92 135.564 413.016C134.425 409.736 136.019 406.396 136.019 406.396L135.165 399.597" fill="#32353D"/>
<path d="M150.238 404.197C150.238 404.197 144.295 399.133 141.014 397.53C137.733 395.927 133.181 394.212 132.793 395.105C132.481 395.825 138.475 398.88 138.475 398.88C138.475 398.88 132.217 395.805 131.787 396.617C131.322 397.5 137.438 400.838 137.438 400.838C137.438 400.838 131.885 398.413 131.547 399.184C131.209 399.945 137.193 403.162 137.193 403.162L146.914 410.823C149.389 411.127 149.992 408.59 150.238 404.197Z" fill="#E7C5AA"/>
<path d="M518.496 171.801C527.254 175.225 535.616 174.836 537.172 170.932C538.727 167.027 532.888 161.086 524.129 157.662C515.37 154.238 507.008 154.627 505.453 158.532C503.897 162.436 509.737 168.377 518.496 171.801Z" fill="#453026"/>
<path d="M536.153 172.348C533.297 174.87 526.044 174.751 518.495 171.801C510.947 168.85 505.567 164.029 505.219 160.255L505.221 160.255C508.079 157.734 515.33 157.853 522.877 160.804C530.423 163.753 535.802 168.572 536.152 172.346L536.153 172.348Z" fill="#58392F"/>
<path d="M537.172 170.932L532.164 183.5C530.609 187.404 522.248 187.793 513.488 184.369C504.729 180.945 498.89 175.004 500.445 171.1L505.453 158.532C503.897 162.436 509.736 168.377 518.496 171.801C527.255 175.225 535.616 174.836 537.172 170.932Z" fill="#FF6000"/>
<path d="M518.496 171.801C517.96 171.592 517.436 171.373 516.924 171.146C516.393 170.965 515.859 170.77 515.324 170.561C510.127 168.53 505.975 165.613 503.768 162.761L500.445 171.1C498.985 174.766 504.044 180.226 511.917 183.714C520.072 186.492 527.532 185.926 528.993 182.26L532.315 173.921C528.736 174.511 523.692 173.833 518.496 171.801Z" fill="#FF6D00"/>
<path d="M511.088 178.892L507.302 176.841C506.019 176.147 505.46 174.616 505.996 173.27C506.533 171.923 507.997 171.183 509.412 171.544L513.592 172.608L511.088 178.892Z" fill="#DEE2E6"/>
<path d="M524.621 166.281L526.832 165.329L527.511 166.88L525.3 167.831L524.621 166.281Z" fill="#453026"/>
<path d="M526.241 169.115L527.806 168.442L529.005 171.181L527.441 171.855L526.241 169.115Z" fill="#453026"/>
<path d="M517.035 163.966L518.62 164.586L517.995 166.157L516.409 165.537L517.035 163.966Z" fill="#453026"/>
<path d="M520.68 164.671L522.245 163.998L523.444 166.737L521.88 167.411L520.68 164.671Z" fill="#453026"/>
<path d="M513.679 161.55L515.336 160.837L516.014 162.386L514.357 163.1L513.679 161.55Z" fill="#453026"/>
<path d="M509.642 161.333L511.3 160.619L511.978 162.169L510.32 162.882L509.642 161.333Z" fill="#453026"/>
<path d="M518.286 160.824L521.458 162.064L520.833 163.635L517.661 162.395L518.286 160.824Z" fill="#453026"/>
<path d="M517.682 166.943L520.854 168.183L520.228 169.753L517.056 168.513L517.682 166.943Z" fill="#453026"/>
<path d="M511.651 163.677L514.823 164.917L514.197 166.488L511.025 165.248L511.651 163.677Z" fill="#453026"/>
<path d="M523.232 169.113L526.404 170.353L525.779 171.923L522.607 170.683L523.232 169.113Z" fill="#453026"/>
<path d="M530.035 168.141L533.207 169.381L532.581 170.951L529.41 169.711L530.035 168.141Z" fill="#453026"/>
<path d="M525.821 181.02L527.865 178.188L523.359 179.149L520.582 178.063L520.895 177.278L519.31 176.658L518.997 177.443L518.203 177.133L518.829 175.562L517.244 174.942L516.618 176.513L515.825 176.203L516.764 173.847L515.178 173.227L514.239 175.583L512.653 174.963L512.028 176.534L513.614 177.154L512.675 179.51L514.261 180.13L515.2 177.774L515.992 178.084L515.367 179.655L516.952 180.274L517.578 178.703L518.371 179.014L518.058 179.799L519.644 180.419L519.957 179.633L522.73 180.718L525.362 184.472L525.821 181.02Z" fill="#DEE2E6"/>
<path d="M23.1424 303.247C31.9013 306.671 40.2629 306.282 41.8184 302.378C43.3739 298.473 37.5344 292.532 28.7754 289.108C20.0164 285.684 11.6549 286.073 10.0994 289.978C8.54385 293.882 14.3834 299.823 23.1424 303.247Z" fill="#453026"/>
<path d="M40.7998 303.794C37.9437 306.316 30.6902 306.197 23.1419 303.247C15.5935 300.296 10.2134 295.475 9.86583 291.701L9.86773 291.701C12.7251 289.18 19.9764 289.299 27.5231 292.249C35.0691 295.199 40.4483 300.018 40.7989 303.792L40.7998 303.794Z" fill="#58392F"/>
<path d="M41.8182 302.378L36.811 314.946C35.2553 318.85 26.8942 319.239 18.135 315.815C9.37575 312.391 3.53631 306.45 5.09197 302.546L10.0991 289.978C8.54346 293.882 14.3829 299.823 23.1421 303.247C31.9013 306.671 40.2625 306.282 41.8182 302.378Z" fill="#FF6000"/>
<path d="M23.142 303.247C22.6067 303.038 22.0828 302.818 21.5701 302.592C21.0392 302.411 20.5053 302.216 19.9701 302.007C14.7737 299.976 10.6212 297.059 8.41406 294.207L5.09182 302.546C3.63129 306.212 8.69058 311.672 16.5629 315.16C24.7182 317.938 32.1784 317.371 33.6389 313.706L36.9612 305.367C33.3828 305.957 28.3383 305.278 23.142 303.247Z" fill="#FF6D00"/>
<path d="M15.7348 310.338L11.9482 308.287C10.6657 307.593 10.1064 306.062 10.6427 304.716C11.1791 303.369 12.6435 302.629 14.0587 302.99L18.2383 304.054L15.7348 310.338Z" fill="#DEE2E6"/>
<path d="M29.2678 297.727L31.479 296.775L32.1576 298.326L29.9464 299.277L29.2678 297.727Z" fill="#453026"/>
<path d="M30.8882 300.561L32.4527 299.888L33.6519 302.627L32.0874 303.301L30.8882 300.561Z" fill="#453026"/>
<path d="M21.6812 295.412L23.2671 296.032L22.6415 297.603L21.0556 296.983L21.6812 295.412Z" fill="#453026"/>
<path d="M25.327 296.117L26.8916 295.444L28.0907 298.183L26.5262 298.857L25.327 296.117Z" fill="#453026"/>
<path d="M18.3251 292.996L19.9826 292.283L20.6608 293.832L19.0033 294.546L18.3251 292.996Z" fill="#453026"/>
<path d="M14.2886 292.779L15.9461 292.065L16.6243 293.615L14.9668 294.328L14.2886 292.779Z" fill="#453026"/>
<path d="M22.933 292.27L26.1049 293.51L25.4793 295.081L22.3074 293.841L22.933 292.27Z" fill="#453026"/>
<path d="M22.3282 298.389L25.5002 299.629L24.8746 301.199L21.7027 299.959L22.3282 298.389Z" fill="#453026"/>
<path d="M16.2974 295.123L19.4693 296.363L18.8437 297.934L15.6718 296.694L16.2974 295.123Z" fill="#453026"/>
<path d="M27.8792 300.559L31.0511 301.799L30.4255 303.369L27.2536 302.129L27.8792 300.559Z" fill="#453026"/>
<path d="M34.6816 299.587L37.8535 300.827L37.228 302.397L34.0561 301.157L34.6816 299.587Z" fill="#453026"/>
<path d="M30.4671 312.466L32.5119 309.634L28.0058 310.595L25.2288 309.509L25.5417 308.723L23.9566 308.104L23.6436 308.889L22.8498 308.579L23.4757 307.008L21.8906 306.388L21.2647 307.959L20.4717 307.649L21.4106 305.293L19.8246 304.673L18.8858 307.029L17.2998 306.409L16.6742 307.98L18.2602 308.6L17.3213 310.956L18.9073 311.576L19.8461 309.22L20.6391 309.53L20.0132 311.101L21.5984 311.72L22.2243 310.149L23.018 310.46L22.7051 311.245L24.2902 311.865L24.6032 311.079L27.377 312.164L30.0083 315.918L30.4671 312.466Z" fill="#DEE2E6"/>
<path d="M395.861 35.5999L405.719 25.8344C406.13 25.4383 406.64 25.1589 407.197 25.0258C407.755 24.8927 408.338 24.9108 408.885 25.0781C409.374 25.219 409.888 25.2534 410.391 25.1791C410.894 25.1048 411.375 24.9234 411.801 24.6475C412.227 24.3716 412.588 24.0077 412.858 23.5807C413.128 23.1537 413.302 22.6738 413.368 22.1739C413.433 21.674 413.389 21.166 413.238 20.6848C413.086 20.2035 412.831 19.7605 412.491 19.3859C412.15 19.0114 411.732 18.7144 411.264 18.5152C410.797 18.316 410.292 18.2193 409.783 18.2319C409.797 17.7277 409.7 17.2265 409.499 16.763C409.298 16.2995 408.997 15.8849 408.618 15.5478C408.048 15.0398 407.326 14.7297 406.562 14.6645C405.798 14.5993 405.033 14.7825 404.384 15.1864C403.734 15.5903 403.235 16.1928 402.962 16.9028C402.69 17.6128 402.658 18.3915 402.872 19.121C403.04 19.6635 403.059 20.2411 402.924 20.793C402.79 21.3449 402.508 21.8507 402.108 22.2573L392.25 32.024C391.839 32.4201 391.328 32.6995 390.771 32.8326C390.214 32.9657 389.631 32.9476 389.083 32.7803C388.595 32.6388 388.081 32.6039 387.577 32.6778C387.073 32.7518 386.592 32.9329 386.166 33.2088C385.739 33.4846 385.378 33.8487 385.108 34.2758C384.837 34.703 384.663 35.1832 384.597 35.6834C384.532 36.1835 384.576 36.6919 384.728 37.1734C384.879 37.6549 385.134 38.0982 385.475 38.4727C385.816 38.8473 386.235 39.1443 386.703 39.3432C387.171 39.5422 387.677 39.6384 388.186 39.6253C388.172 40.1296 388.269 40.6308 388.47 41.0943C388.671 41.5578 388.972 41.9724 389.35 42.3095C389.921 42.8176 390.642 43.1279 391.407 43.1932C392.171 43.2585 392.936 43.0753 393.585 42.6714C394.235 42.2674 394.734 41.6648 395.007 40.9547C395.28 40.2446 395.311 39.4658 395.097 38.7363C394.928 38.1938 394.91 37.6162 395.044 37.0643C395.179 36.5124 395.461 36.0065 395.861 35.5999V35.5999Z" fill="#5BBA6F"/>
<path d="M409.871 23.2773C409.722 23.2776 409.573 23.2571 409.43 23.2165C409.328 23.1859 409.242 23.1168 409.192 23.0241C409.141 22.9314 409.129 22.8226 409.158 22.7213C409.188 22.62 409.257 22.5343 409.35 22.4828C409.442 22.4313 409.552 22.418 409.655 22.446C409.792 22.485 409.938 22.4852 410.076 22.4465C410.214 22.4078 410.338 22.3319 410.435 22.2271C410.556 22.0871 410.623 21.9088 410.624 21.7242C410.625 21.5397 410.559 21.361 410.438 21.2202C410.403 21.1811 410.375 21.1354 410.357 21.0857C410.339 21.0361 410.332 20.9835 410.335 20.9309C410.34 20.8246 410.388 20.7249 410.468 20.6536C410.548 20.5824 410.653 20.5455 410.76 20.551C410.867 20.5565 410.968 20.604 411.04 20.683C411.294 20.9726 411.433 21.3435 411.432 21.727C411.43 22.1105 411.289 22.4806 411.033 22.7687C410.887 22.93 410.707 23.0587 410.507 23.1463C410.307 23.234 410.09 23.2786 409.871 23.2773V23.2773Z" fill="#137547"/>
<path d="M580.18 313.981L590.039 304.216C590.449 303.819 590.96 303.54 591.517 303.407C592.074 303.274 592.657 303.292 593.205 303.459C593.693 303.6 594.207 303.635 594.71 303.56C595.214 303.486 595.695 303.305 596.121 303.029C596.547 302.753 596.907 302.389 597.178 301.962C597.448 301.535 597.622 301.055 597.688 300.555C597.753 300.055 597.709 299.547 597.557 299.066C597.406 298.585 597.151 298.142 596.81 297.767C596.47 297.393 596.051 297.096 595.584 296.896C595.117 296.697 594.611 296.601 594.102 296.613C594.116 296.109 594.019 295.608 593.818 295.144C593.617 294.681 593.317 294.266 592.938 293.929C592.368 293.421 591.646 293.111 590.882 293.046C590.118 292.981 589.353 293.164 588.703 293.568C588.054 293.971 587.555 294.574 587.282 295.284C587.009 295.994 586.977 296.773 587.191 297.502C587.36 298.045 587.378 298.622 587.244 299.174C587.109 299.726 586.828 300.232 586.428 300.639L576.569 310.405C576.159 310.801 575.648 311.081 575.091 311.214C574.534 311.347 573.951 311.329 573.403 311.161C572.914 311.02 572.4 310.985 571.897 311.059C571.393 311.133 570.911 311.314 570.485 311.59C570.059 311.866 569.698 312.23 569.427 312.657C569.156 313.084 568.982 313.564 568.917 314.065C568.851 314.565 568.896 315.073 569.047 315.555C569.199 316.036 569.454 316.479 569.795 316.854C570.136 317.228 570.555 317.525 571.023 317.724C571.491 317.923 571.996 318.02 572.505 318.007C572.492 318.511 572.589 319.012 572.79 319.475C572.991 319.939 573.291 320.354 573.67 320.691C574.24 321.199 574.962 321.509 575.726 321.574C576.49 321.64 577.255 321.456 577.905 321.053C578.554 320.649 579.053 320.046 579.326 319.336C579.599 318.626 579.631 317.847 579.417 317.117C579.248 316.575 579.23 315.997 579.364 315.445C579.498 314.894 579.78 314.388 580.18 313.981V313.981Z" fill="#5BBA6F"/>
<path d="M594.191 301.658C594.041 301.659 593.893 301.638 593.749 301.598C593.647 301.567 593.562 301.498 593.511 301.405C593.46 301.313 593.448 301.204 593.478 301.102C593.508 301.001 593.576 300.915 593.669 300.864C593.762 300.812 593.872 300.799 593.974 300.827C594.112 300.866 594.258 300.866 594.396 300.828C594.534 300.789 594.658 300.713 594.755 300.608C594.876 300.468 594.943 300.29 594.944 300.105C594.944 299.921 594.878 299.742 594.758 299.601C594.722 299.562 594.695 299.517 594.677 299.467C594.659 299.417 594.651 299.365 594.654 299.312C594.66 299.206 594.708 299.106 594.787 299.035C594.867 298.964 594.972 298.927 595.079 298.932C595.187 298.938 595.287 298.985 595.359 299.064C595.613 299.354 595.752 299.725 595.751 300.108C595.75 300.492 595.608 300.862 595.353 301.15C595.206 301.311 595.027 301.44 594.827 301.527C594.626 301.615 594.41 301.66 594.191 301.658V301.658Z" fill="#137547"/>
<path d="M594.951 482.651C595.01 482.104 594.964 481.537 594.766 480.982C594.069 479.026 591.926 477.991 589.979 478.672L588.891 479.052C589.177 478.007 589.323 476.833 588.924 475.711C587.937 472.942 584.189 471.732 581.851 472.55C582.591 474.627 582.316 476.371 579.588 477.325C577.155 478.176 575.59 481.001 575.977 483.567L575.878 483.602C573.931 484.283 572.917 486.421 573.615 488.377C573.812 488.932 574.135 489.402 574.528 489.791C573.535 491.012 573.174 492.704 573.745 494.307C574.617 496.753 577.296 498.046 579.73 497.195L595.593 491.649C598.027 490.798 599.294 488.126 598.422 485.68C597.851 484.076 596.498 482.984 594.951 482.651L594.951 482.651Z" fill="#453026"/>
<path d="M171.698 13.7986C171.758 13.2518 171.712 12.6849 171.514 12.1299C170.817 10.1733 168.673 9.13904 166.727 9.81971L165.639 10.1999C165.925 9.15474 166.071 7.98006 165.672 6.85902C164.685 4.08969 160.937 2.87996 158.599 3.69746C159.339 5.77443 159.064 7.51887 156.336 8.47261C153.903 9.32318 152.338 12.1485 152.725 14.7148L152.625 14.7497C150.678 15.4303 149.665 17.5682 150.362 19.5248C150.56 20.0799 150.883 20.55 151.276 20.9386C150.282 22.1597 149.922 23.8511 150.493 25.455C151.364 27.9007 154.044 29.1936 156.478 28.3427L172.341 22.7965C174.775 21.9457 176.041 19.2733 175.17 16.8276C174.599 15.2236 173.246 14.1313 171.698 13.7986L171.698 13.7986Z" fill="#453026"/>
<defs>
<clipPath id="clip0">
<rect width="28.3805" height="28.2055" fill="white" transform="matrix(0.910618 -0.413249 0.41977 0.907631 32.9956 169.515)"/>
</clipPath>
<clipPath id="clip1">
<rect width="28.3805" height="28.2055" fill="white" transform="matrix(0.910618 -0.413249 0.41977 0.907631 293.546 387.054)"/>
</clipPath>
<clipPath id="clip2">
<rect width="289.615" height="284.227" fill="white" transform="translate(140.262 42.8279)"/>
</clipPath>
</defs>
</svg>
