<svg width="480" height="400" viewBox="0 0 480 400" fill="none" xmlns="http://www.w3.org/2000/svg">
<path d="M12.7929 110.795C7.9086 116.27 0 137.439 0 148.13C0 148.13 13.491 156.997 29.3083 150.117L33.729 135.748L12.7929 110.795Z" fill="#FF6000"/>
<path d="M108.396 98.4258C108.396 98.4258 123.982 117.893 128.168 135.939C128.168 135.939 123.197 149.046 103.236 143.202L98.8594 134.722C98.8594 134.722 94.9051 97.2086 108.396 98.4258Z" fill="#FF6000"/>
<path d="M123.009 376.469L126.131 389.066H141.877L140.617 376.151L123.009 376.469" fill="#EEBF9B"/>
<path d="M176.869 399.809V399.951H129.373C127.166 399.951 125.375 398.39 125.375 396.465V386.603C125.375 386.603 133.706 386.603 138.04 386.603C142.373 386.603 138.721 379.551 144.108 378.292C149.493 377.032 152.774 386.985 152.774 386.985L169.23 391.025C172.443 391.811 174.939 393.846 176.117 396.424C176.603 397.483 176.869 398.621 176.869 399.809" fill="#548756"/>
<path d="M176.869 399.809V399.951H129.373C127.166 399.951 125.375 398.39 125.375 396.465V396.424H176.117C176.603 397.483 176.869 398.621 176.869 399.809" fill="#435F44"/>
<path d="M152.558 391.408L151.545 390.863L154.578 386.581L155.591 387.127L152.558 391.408Z" fill="#435F44"/>
<path d="M156.626 392.256L155.567 391.779L157.958 387.749L159.018 388.226L156.626 392.256Z" fill="#435F44"/>
<path d="M112.031 221.144L142.138 380.544H123.276L67.1304 222.801L112.031 221.144Z" fill="#435F44"/>
<path d="M43.7717 376.33L44.5292 389.066H60.2747L61.7193 375.269L43.7717 376.33Z" fill="#EEBF9B"/>
<path d="M27.6086 225.069L42.667 382.069H64.7525L70.7129 248.884L97.4631 239.557L110.664 220.302L27.6086 225.069Z" fill="#435F44"/>
<path d="M95.2661 399.809V399.951H47.7702C45.5626 399.951 43.7717 398.39 43.7717 396.465V386.603C43.7717 386.603 52.1039 386.603 56.4377 386.603C60.7714 386.603 57.1193 379.551 62.5044 378.292C67.8895 377.032 71.1718 386.985 71.1718 386.985L87.6279 391.025C90.84 391.811 93.3359 393.846 94.5156 396.424C95.0012 397.483 95.2661 398.621 95.2661 399.809Z" fill="#548756"/>
<path d="M95.2661 399.809V399.951H47.7702C45.5626 399.951 43.7717 398.39 43.7717 396.465V396.424H94.5156C95.0012 397.483 95.2661 398.621 95.2661 399.809" fill="#435F44"/>
<path d="M70.9567 391.408L69.9426 390.863L72.9767 386.581L73.9894 387.127L70.9567 391.408Z" fill="#435F44"/>
<path d="M75.0244 392.256L73.9648 391.779L76.3573 387.749L77.4155 388.226L75.0244 392.256Z" fill="#435F44"/>
<path d="M60.9774 82.001C69.9002 81.129 92.8107 84.6362 108.396 98.4259L101.884 135.939L119.096 228.404C119.096 228.404 62.1074 251.179 19.0735 232.524L27.6086 137.155L12.793 110.795C12.793 110.795 27.7465 85.2448 60.9774 82.001" fill="#FF6000"/>
<path d="M61.8964 85.9015L70.2535 92.4036L79.4522 83.9914C79.4522 83.9914 70.637 78.2483 59.6143 79.6423C48.5916 81.0375 41.2598 87.0453 41.2598 87.0453L56.5596 94.4747L61.8964 85.9015Z" fill="#FF6D00"/>
<path d="M52.5613 75.097L53.7065 85.1846C53.7065 85.1846 56.7502 86.7723 61.8966 85.9015C67.0416 85.0295 67.4279 82.9571 67.4279 82.9571L64.725 72.3199L52.5613 75.097" fill="#EEBF9B"/>
<path d="M45.9407 13.4628C60.443 10.4848 68.2827 9.76306 73.665 23.8883C79.046 38.0123 82.9796 69.675 70.8738 72.961C58.768 76.2469 41.2744 81.248 29.2748 64.7786C19.0096 50.6895 21.9319 27.2524 27.1584 21.9879C32.3848 16.7247 45.9407 13.4628 45.9407 13.4628Z" fill="#EEBF9B"/>
<path d="M70.3749 40.9892C71.7864 40.6512 73.2447 41.3752 73.6311 42.6057C74.0188 43.8361 73.1896 45.1074 71.7781 45.4442C70.3666 45.7822 68.9083 45.0581 68.5206 43.8289C68.1343 42.5984 68.9635 41.3271 70.3749 40.9892Z" fill="#41444D"/>
<path d="M41.225 44.4483C42.6365 44.1116 44.0949 44.8344 44.4826 46.0648C44.8689 47.2953 44.0397 48.5666 42.6282 48.9045C41.2167 49.2413 39.7584 48.5185 39.3707 47.288C38.9844 46.0576 39.8136 44.7863 41.225 44.4483Z" fill="#41444D"/>
<path d="M58.3086 54.3554L63.8068 50.9612C63.8068 50.9612 64.8182 56.0453 58.3086 54.3554Z" fill="#E29280"/>
<path d="M68.7423 37.8199C68.4346 37.8199 68.1821 37.6022 68.1821 37.3328C68.1808 37.0633 68.4318 36.8432 68.7409 36.8432L74.0418 36.83H74.0432C74.3523 36.83 74.6034 37.0477 74.6034 37.3171C74.6048 37.5866 74.355 37.8066 74.0446 37.8066L68.7437 37.8199H68.7423Z" fill="#41444D"/>
<path d="M39.168 41.9465C38.9252 41.9465 38.7017 41.8094 38.63 41.5965C38.5417 41.3379 38.7127 41.0649 39.008 40.9891L43.448 39.8453C43.7432 39.7671 44.0578 39.9163 44.1447 40.1761C44.233 40.4347 44.062 40.7065 43.7667 40.7834L39.3267 41.9261L39.168 41.9465" fill="#41444D"/>
<path d="M19.2153 50.7965C19.2153 50.7965 14.636 40.5454 15.2927 31.5595C15.9481 22.5725 25.5924 11.72 39.9361 8.05396C54.2798 4.38794 57.1235 3.80222 59.4429 2.51767C61.7622 1.23432 70.8339 -2.99581 74.366 3.61337C77.8981 10.2225 75.256 14.3733 75.256 14.3733C75.256 14.3733 83.2681 10.8612 84.743 16.2989C86.2193 21.7354 83.9745 25.049 83.9745 25.049C83.9745 25.049 86.9754 22.9898 86.8195 26.74C86.6636 30.4915 81.9973 32.7358 76.6619 33.6403C71.3251 34.5448 49.844 30.8523 40.9268 34.5845C32.4649 38.1254 30.5209 48.753 19.2153 50.7965" fill="#2F2F2F"/>
<path d="M59.599 56.3195C54.0304 56.6695 48.9461 57.2324 48.3597 62.5558C47.7747 67.878 49.4565 75.8235 49.4565 75.8235L54.6926 74.7626C54.6926 74.7626 51.5109 64.5536 53.0066 62.3453C54.5036 60.1358 66.8467 59.3613 67.5448 61.0247C68.2416 62.6893 70.1967 71.6739 70.1967 71.6739L75.3335 69.4813C75.3335 69.4813 72.1353 56.02 67.5808 55.8179C63.8637 55.6531 59.599 56.3195 59.599 56.3195" fill="#2F2F2F"/>
<path d="M23.784 48.1433C23.784 48.1433 14.2432 48.545 16.3362 53.9261C18.4293 59.3073 25.3073 55.9167 25.3073 55.9167L23.784 48.1433" fill="#EEBF9B"/>
<path d="M24.2471 50.509L24.9467 54.0788C24.9467 54.0788 21.3773 54.8521 20.7081 52.609C20.0376 50.3658 24.2471 50.509 24.2471 50.509" fill="#E29280"/>
<path d="M55.1836 65.072L63.2108 65.137C63.2108 65.137 58.8247 68.3917 55.1836 65.072Z" fill="#E29280"/>
<path d="M106.423 147.4C104.749 164.441 91.7964 168.698 83.4228 169.664C82.4653 169.769 81.5616 169.834 80.753 169.875C78.0543 169.996 76.2676 169.801 76.2676 169.801C74.3332 170.719 70.8341 171.538 66.5639 172.13C65.0103 172.349 63.3532 172.535 61.6327 172.689C47.7401 173.939 29.6808 172.941 27.5877 166.728C24.5261 157.62 38.8822 133.116 55.0817 128.484C71.2908 123.845 79.7569 129.426 83.5539 129.734C99.4167 131.023 106.423 147.4 106.423 147.4" fill="#7D573D"/>
<path d="M66.564 172.13C65.0104 172.349 63.3533 172.535 61.6328 172.689C64.1259 169.056 67.0013 163.702 65.2891 160.207C62.5724 154.675 57.3804 151.706 47.9182 149.905C47.9182 149.905 63.5768 149.184 68.0803 158.788C70.5831 164.124 68.7122 168.926 66.564 172.13" fill="#755039"/>
<path d="M83.4226 169.664C82.4651 169.769 81.5613 169.834 80.7528 169.875C80.3899 162.389 86.1393 155.673 86.1393 155.673C83.2736 162.81 83.0225 167.158 83.4226 169.664Z" fill="#755039"/>
<path d="M2.66133 149.55C2.66133 149.55 -2.43403 172.366 8.3072 177.74C19.0484 183.112 64.4803 191.894 103.574 176.556L94.7489 165.544C94.7489 165.544 40.1666 173.362 25.1234 164.924L26.3486 151.237C26.3486 151.237 13.386 154.647 2.66133 149.55" fill="#D6A783"/>
<path d="M125.93 139.36C125.93 139.36 136.774 163.719 128.168 170.005C119.561 176.29 70.7127 181.117 59.3147 180.124C47.9181 179.13 47.2199 190.282 43.9638 190.485C40.7062 190.687 45.2814 180.144 45.2814 180.144C45.2814 180.144 41.3271 189.809 38.1482 189.471C34.2159 189.053 39.5431 179.165 39.5431 179.165C39.5431 179.165 34.6588 188.457 31.6345 187.444C28.6115 186.43 35.1238 171.019 46.5218 168.789C57.9198 166.558 101.942 166.253 108.28 160.373C109.443 154.797 105.036 143.688 105.036 143.688C112.734 145.393 119.61 143.573 125.93 139.36Z" fill="#EEBF9B"/>
<path d="M94.3392 125.956C95.9935 126.093 100.196 124.178 98.7101 118.512C97.2242 112.846 97.5802 108.465 93.2561 108.55C88.9306 108.635 84.2367 124.839 87.6419 127.932C91.0457 131.026 94.3392 125.956 94.3392 125.956" fill="#7D573D"/>
<path d="M113.218 144.006C112.953 145.432 112.524 146.581 111.904 147.497C110.443 149.66 107.916 150.564 103.968 150.869C96.559 151.433 76.5115 142.356 79.4959 131.629C82.4802 120.904 95.4249 121.07 95.4249 121.07C100.066 121.625 113.24 129.405 113.515 138.503C113.581 140.683 113.491 142.5 113.218 144.006" fill="#886242"/>
<path d="M94.9022 130.726C94.9022 130.726 92.6988 139.214 103.555 138.384C103.555 138.384 104.346 130.078 94.9022 130.726Z" fill="#A87F63"/>
<path d="M97.9153 133.519C97.9153 133.519 103.574 131.355 102.965 137.737C102.965 137.737 95.0731 138.065 97.9153 133.519Z" fill="#2E323B"/>
<path d="M113.218 144.006C113.799 145.818 113.216 146.897 111.905 147.497L110.479 145.372C110.479 145.372 111.725 144.183 113.218 144.006Z" fill="#2E323B"/>
<path d="M109.43 143.729C114.463 146.063 111.04 152.46 104.429 150.539C97.8205 148.62 101.493 140.05 109.43 143.729Z" fill="#A87F63"/>
<path d="M91.0831 125.398C92.7401 125.297 96.5275 122.808 93.9971 117.43C91.4667 112.052 90.9962 107.68 86.7452 108.381C82.4942 109.081 80.9075 125.737 84.8467 128.302C88.7858 130.868 91.0831 125.398 91.0831 125.398" fill="#886242"/>
<path d="M86.5133 109.487C88.0683 108.919 91.4665 113.379 91.719 116.05C91.9729 118.72 87.5702 127.663 85.9214 127.665C84.274 127.668 82.966 110.78 86.5133 109.487" fill="#A87F63"/>
<path d="M366.357 138.648C354.877 157.119 322.093 186.683 322.093 186.683C322.093 186.683 306.395 189.388 305.578 190.914C304.76 192.439 313.179 193.56 313.179 193.56C313.179 193.56 301.528 201.969 303.674 203.73C305.534 205.258 313.215 199.12 314.934 197.664C313.159 199.203 305.263 206.035 306.849 207.336C308.163 208.416 315.093 202.86 317.587 200.631C315.335 202.792 309.448 208.328 311.351 209.035C314.018 210.027 330.005 194.236 330.005 194.236C352.496 179.863 385.736 149.171 385.736 149.171L366.357 138.648" fill="#DDBB98"/>
<path d="M388.234 102.537L359.339 142.682C359.339 142.682 368.587 162.873 380.687 164.225L396.305 143.362C396.305 143.362 406.226 119.029 388.234 102.537" fill="#FF6000"/>
<path d="M479.062 380.963V389.123H463.912L463.001 378.247L479.062 380.963Z" fill="#EEBF9B"/>
<path d="M409.73 380.372L407.881 389.123H393.918L393.008 378.247L409.73 380.372Z" fill="#EEBF9B"/>
<path d="M411.013 242.412L436.69 252.51L459.663 383.351H480L473.915 230.266L411.579 217.172L411.013 242.412" fill="#435F44"/>
<path d="M389.71 218.763C389.71 221.549 391.173 381.683 391.173 381.683L409.965 385.02L431.268 218.763H389.71Z" fill="#435F44"/>
<path d="M428.536 399.859V400H475.999C478.206 400 480 398.44 480 396.517V386.661C480 386.661 471.666 386.661 467.334 386.661C463.002 386.661 466.658 379.616 461.277 378.358C455.896 377.099 452.612 387.044 452.612 387.044L436.166 391.082C432.965 391.866 430.467 393.9 429.295 396.477C428.798 397.533 428.536 398.671 428.536 399.859Z" fill="#548756"/>
<path d="M428.536 399.859V400H475.999C478.206 400 480 398.44 480 396.517V396.477H429.295C428.798 397.533 428.536 398.671 428.536 399.859Z" fill="#435F44"/>
<path d="M452.819 391.469L449.798 387.191L450.819 386.636L453.854 390.914L452.819 391.469Z" fill="#435F44"/>
<path d="M448.763 392.314L446.362 388.287L447.438 387.804L449.839 391.831L448.763 392.314Z" fill="#435F44"/>
<path d="M357.088 399.859V400H404.542C406.75 400 408.543 398.44 408.543 396.517V386.661C408.543 386.661 400.223 386.661 395.891 386.661C391.559 386.661 395.201 379.616 389.82 378.358C384.439 377.099 381.169 387.044 381.169 387.044L364.72 391.082C361.511 391.866 359.016 393.9 357.838 396.477C357.354 397.533 357.088 398.671 357.088 399.859Z" fill="#548756"/>
<path d="M357.088 399.859V400H404.542C406.75 400 408.543 398.44 408.543 396.517V396.477H357.838C357.354 397.533 357.088 398.671 357.088 399.859Z" fill="#435F44"/>
<path d="M381.377 391.469L378.341 387.191L379.376 386.636L382.398 390.914L381.377 391.469Z" fill="#435F44"/>
<path d="M377.306 392.314L374.919 388.287L375.995 387.804L378.382 391.831L377.306 392.314Z" fill="#435F44"/>
<path d="M465.154 109.295C453.054 85.7738 426.246 84.0383 426.246 84.0383L404.763 89.8295C396.402 93.3777 388.234 102.537 388.234 102.537L387.613 139.846C391.021 164.991 382.66 236.097 382.66 236.097C403.135 260.16 477.558 238.531 477.558 238.531C477.558 238.531 477.254 132.817 465.154 109.295" fill="#FF6000"/>
<path d="M364.272 48.1561C364.272 48.1561 353.201 49.662 356.412 55.7119C359.622 61.7606 367.161 57.059 367.161 57.059L364.272 48.1561" fill="#EEBF9B"/>
<path d="M365.151 50.8659L366.477 54.9529C366.477 54.9529 362.426 56.2435 361.323 53.6996C360.221 51.1558 365.151 50.8659 365.151 50.8659" fill="#E29280"/>
<path d="M385.226 8.76445C367.855 10.4904 358.873 12.404 359.357 29.8573C359.843 47.3118 369.897 83.628 384.757 83.0711C399.616 82.513 421.209 81.9874 426.963 59.6557C431.888 40.5522 418.008 15.6887 409.84 11.6836C401.672 7.67836 385.226 8.76445 385.226 8.76445" fill="#EEBF9B"/>
<path d="M425.459 39.3927C425.459 39.3927 436.179 36.5374 436.317 43.2019C436.455 49.8652 427.322 48.5013 427.322 48.5013L425.459 39.3927" fill="#EEBF9B"/>
<path d="M426.025 42.1639L426.88 46.3472C426.88 46.3472 431.171 45.9671 430.895 43.2585C430.605 40.551 426.025 42.1639 426.025 42.1639" fill="#E29280"/>
<path d="M405.218 21.0844C405.218 21.0844 383.542 42.7425 371.47 45.1576C359.408 47.574 357.508 46.3135 354.732 41.1296C354.732 41.1296 345.953 45.8925 342.673 39.9893C339.395 34.0862 346.189 31.9056 346.189 31.9056C346.189 31.9056 340.898 31.4618 339.599 26.528C337.582 18.8688 368.186 4.36116 398.389 4.5115C428.591 4.66185 431.406 34.6623 426.425 39.1799C426.425 39.1799 412.765 35.8627 405.218 21.0844Z" fill="#453026"/>
<path d="M370.767 47.6005C369.056 47.716 367.773 49.0186 367.911 50.5112C368.049 52.0039 369.539 53.12 371.25 53.0045C372.96 52.8891 374.244 51.5865 374.106 50.0938C373.981 48.6024 372.478 47.4863 370.767 47.6005Z" fill="#41444D"/>
<path d="M404.528 41.3425C402.818 41.458 401.534 42.7606 401.659 44.2532C401.797 45.7458 403.287 46.862 404.997 46.7465C406.722 46.6311 407.992 45.3285 407.867 43.8359C407.729 42.3444 406.239 41.2282 404.528 41.3425Z" fill="#41444D"/>
<path d="M389.931 59.9167L382.66 58.3964C382.66 58.3964 383.764 64.4259 389.931 59.9167Z" fill="#E29280"/>
<path d="M393.67 71.8241C393.297 71.8241 392.994 71.5715 392.98 71.2492C392.966 70.9172 393.256 70.6357 393.642 70.6213C393.698 70.6189 400.017 70.3351 403.218 66.9024C404.832 65.1584 405.398 62.8659 404.86 60.0923C404.804 59.7652 405.053 59.4549 405.425 59.4007C405.812 59.3406 406.157 59.5667 406.226 59.8963C406.819 63.0271 406.17 65.6407 404.28 67.6661C400.693 71.5186 393.987 71.8121 393.698 71.8229L393.67 71.8241" fill="#E29280"/>
<path d="M403.438 77.6623L407.868 87.9363L404.763 89.8295C404.763 89.8295 405.287 98.7515 412.421 109.295C412.421 109.295 420.05 87.2893 426.245 84.0382L418.009 84.9631L412.738 74.9585L403.438 77.6623" fill="#EEBF9B"/>
<path d="M461.746 153.636L441.588 149.31C441.588 149.31 415.566 192.578 379.5 199.8C378.162 199.678 361.689 198.209 360.29 199.549C358.832 200.947 368.835 203.937 368.835 203.937C368.835 203.937 351.729 210.22 353.354 212.729C354.766 214.907 366.241 210.14 368.642 209.081C366.15 210.213 354.179 215.66 355.38 217.513C356.376 219.052 367.016 214.967 370.546 213.303C367.302 214.964 359.312 218.528 361.081 219.839C363.56 221.677 386.426 211.222 386.44 211.219C393.38 208.463 450.101 185.098 461.746 153.636" fill="#DDBB98"/>
<path d="M453.55 95.0387C453.55 95.0387 439.104 97.9397 439.408 116.596C439.725 135.251 432.896 152.555 432.896 152.555C432.896 152.555 445.92 166.073 464.533 160.125C464.533 160.125 473.708 140.414 468.189 117.69C462.67 94.9664 453.55 95.0387 453.55 95.0387" fill="#FF6D00"/>
<path d="M244.561 209.08C244.561 209.08 241.729 233.799 245.82 251.238H308.761C308.761 251.238 306.527 217.833 284.616 199.354L244.561 209.08Z" fill="#212222"/>
<path d="M280.15 185.133L271.319 179.788L271.301 179.772L268.473 178.06C268.473 178.06 277.712 169.925 280.969 171.142C281.489 171.336 281.825 171.823 282.011 172.505C283.035 176.106 280.15 185.133 280.15 185.133Z" fill="#2F2F2F"/>
<path d="M237.582 185.133L246.413 179.788L246.431 179.772L249.259 178.06C249.259 178.06 240.02 169.925 236.764 171.142C236.243 171.336 235.907 171.823 235.721 172.505C234.699 176.106 237.582 185.133 237.582 185.133Z" fill="#2F2F2F"/>
<path d="M280.15 185.133L271.319 179.788L271.301 179.772C271.301 179.772 278.28 171.523 282.001 172.496L282.011 172.505C283.035 176.106 280.15 185.133 280.15 185.133Z" fill="#4C5155"/>
<path d="M237.582 185.133L246.413 179.788L246.431 179.772C246.431 179.772 239.453 171.523 235.731 172.496L235.721 172.505C234.699 176.106 237.582 185.133 237.582 185.133Z" fill="#4C5155"/>
<path d="M291.426 194.867C291.426 194.867 291.167 195.831 290.478 197.332C290.078 198.216 289.529 199.287 288.803 200.455C288.133 201.542 287.314 202.71 286.309 203.902C281.722 209.361 273.394 215.249 258.862 215.144C231.878 215.346 226.296 194.867 226.296 194.867C231.535 191.419 240.718 176.414 258.862 176.414C271.199 176.414 279.396 183.349 285.025 188.872C285.937 189.773 286.793 190.64 287.575 191.427C288.523 192.376 289.38 193.212 290.153 193.885C290.598 194.274 291.026 194.607 291.426 194.867" fill="#2F2F2F"/>
<path d="M268.472 194.751C267.905 194.751 267.373 194.443 267.172 193.951C266.917 193.326 267.291 192.637 268.01 192.415L274.888 190.285C275.61 190.065 276.396 190.391 276.651 191.017C276.905 191.642 276.531 192.331 275.812 192.553L268.934 194.683C268.781 194.73 268.625 194.751 268.472 194.751Z" fill="#000002"/>
<path d="M249.258 194.751C249.105 194.751 248.95 194.73 248.796 194.683L241.918 192.553C241.199 192.331 240.825 191.642 241.079 191.017C241.334 190.39 242.121 190.064 242.842 190.285L249.72 192.415C250.439 192.637 250.813 193.326 250.559 193.951C250.358 194.443 249.825 194.751 249.258 194.751Z" fill="#000002"/>
<path d="M258.866 197.376C260.099 197.447 261.454 197.773 262.82 198.548L259.577 201.121C259.218 201.404 258.514 201.404 258.157 201.121L254.912 198.548C256.279 197.773 257.632 197.447 258.866 197.376" fill="#000002"/>
<path d="M264.158 207.782L263.808 207.699L258.866 205.154L253.926 207.699C253.599 207.866 253.174 207.771 252.98 207.487C252.787 207.201 252.896 206.832 253.223 206.663L258.866 203.756L264.509 206.663C264.837 206.832 264.946 207.201 264.753 207.486C264.623 207.676 264.394 207.782 264.158 207.782Z" fill="#000002"/>
<path d="M258.866 205.056C258.485 205.056 258.176 204.787 258.176 204.455V199.983C258.176 199.65 258.485 199.382 258.866 199.382C259.246 199.382 259.556 199.65 259.556 199.983V204.455C259.556 204.787 259.246 205.056 258.866 205.056Z" fill="#000002"/>
<path d="M291.426 194.867C291.426 194.867 291.167 195.831 290.478 197.332C287.64 196.74 283.982 194.557 283.982 194.557C285.324 194.622 288.235 194.193 290.153 193.885C290.598 194.274 291.026 194.607 291.426 194.867" fill="#212222"/>
<path d="M288.803 200.455C288.133 201.542 287.314 202.71 286.309 203.902C285.183 202.734 283.704 200.609 282.234 196.797C282.234 196.797 285.379 199.133 288.803 200.455Z" fill="#212222"/>
<path d="M287.575 191.427C284.457 191.931 281.657 191.42 281.657 191.42C282.652 191.151 283.927 190.024 285.025 188.872C285.937 189.773 286.793 190.64 287.575 191.427" fill="#212222"/>
<path d="M226.296 194.867C226.296 194.867 226.556 195.831 227.245 197.332C230.083 196.74 233.739 194.557 233.739 194.557C232.4 194.622 229.487 194.193 227.571 193.885C227.124 194.274 226.696 194.607 226.296 194.867Z" fill="#212222"/>
<path d="M228.92 200.455C229.589 201.542 230.408 202.71 231.413 203.902C232.539 202.734 234.018 200.609 235.489 196.797C235.489 196.797 232.343 199.133 228.92 200.455Z" fill="#212222"/>
<path d="M230.148 191.427C233.265 191.931 236.066 191.42 236.066 191.42C235.069 191.151 233.795 190.024 232.698 188.872C231.786 189.773 230.929 190.64 230.148 191.427" fill="#212222"/>
<path d="M331.989 343.702H237.242V333.158H331.989V343.702Z" fill="#453026"/>
<path d="M340.75 399.999C336.436 400.055 332.266 396.478 331.437 392.01L314.422 300.379L330.044 300.173L347.058 391.804C347.888 396.274 345.063 399.942 340.75 399.999Z" fill="#453026"/>
<path d="M228.481 399.999C232.796 400.055 236.965 396.478 237.795 392.01L254.81 300.379L239.188 300.173L222.175 391.804C221.344 396.274 224.168 399.942 228.481 399.999Z" fill="#453026"/>
<path d="M331.277 301.892H237.955C231.788 301.892 226.789 297.534 226.789 292.159C226.789 286.783 231.788 282.425 237.955 282.425H331.277C337.445 282.425 342.444 286.783 342.444 292.159C342.444 297.534 337.445 301.892 331.277 301.892Z" fill="#453026"/>
<path d="M268.579 169.942C267.485 169.441 266.278 169.323 265.156 169.534C265.528 167.842 264.636 166.069 262.795 165.227C260.545 164.197 257.762 164.953 256.581 166.916C256.204 167.542 256.057 168.216 256.076 168.877C254.358 168.622 252.576 169.322 251.723 170.74C251.326 171.401 251.186 172.12 251.273 172.809C249.778 172.802 248.327 173.489 247.584 174.724C246.523 176.487 247.302 178.668 249.326 179.594C251.092 180.402 253.224 179.985 254.442 178.692C254.968 179.433 255.714 180.068 256.664 180.502C259.487 181.793 262.973 180.845 264.454 178.385L264.623 178.065C266.944 178.738 269.545 177.872 270.719 175.923C272.023 173.756 271.065 171.078 268.579 169.942" fill="#F8F9FA"/>
<path d="M240.967 160.801C240.11 161.436 240.006 162.556 240.735 163.302C241.465 164.049 242.749 164.14 243.606 163.503C244.463 162.868 244.566 161.747 243.836 161.002C243.108 160.255 241.822 160.164 240.967 160.801Z" fill="#F8F9FA"/>
<path d="M244.5 150.295C243.643 150.931 243.539 152.051 244.269 152.798C244.998 153.545 246.282 153.635 247.139 152.998C247.996 152.363 248.1 151.242 247.37 150.497C246.641 149.75 245.357 149.66 244.5 150.295Z" fill="#F8F9FA"/>
<path d="M259.171 151.776C257.552 151.323 255.82 152.099 255.299 153.51C254.779 154.92 255.669 156.432 257.288 156.886C258.906 157.339 260.64 156.563 261.16 155.153C261.681 153.742 260.789 152.23 259.171 151.776Z" fill="#F8F9FA"/>
<path d="M271.912 162.151C270.455 163.18 270.232 165.043 271.411 166.312C272.591 167.581 274.727 167.777 276.183 166.748C277.64 165.72 277.863 163.858 276.683 162.588C275.504 161.319 273.368 161.124 271.912 162.151Z" fill="#F8F9FA"/>
<path d="M338.457 226.828C333.811 226.828 329.752 228.978 327.487 232.193C325.641 229.836 322.535 228.288 319.014 228.288C313.351 228.288 308.761 232.289 308.761 237.226L308.766 237.339C307.214 236.485 305.382 235.982 303.41 235.982C301.177 235.982 299.121 236.624 297.453 237.697C295.28 233.86 290.76 231.214 285.518 231.214C283.139 231.214 280.911 231.765 278.978 232.718C277.71 230.114 274.751 228.288 271.301 228.288C267.003 228.288 263.467 231.124 263.016 234.766C261.925 234.309 260.708 234.047 259.416 234.047C258.958 234.047 258.511 234.087 258.072 234.149C256.23 229.663 251.325 226.446 245.546 226.446C240.409 226.446 235.959 228.987 233.738 232.701C232.634 232.337 231.442 232.129 230.193 232.129C224.639 232.129 220.136 236.054 220.136 240.896C220.136 245.737 224.639 249.663 230.193 249.663C232.947 249.663 235.442 248.695 237.258 247.131C239.533 248.712 242.41 249.663 245.546 249.663C248.814 249.663 251.804 248.631 254.122 246.927C255.563 247.96 257.406 248.581 259.416 248.581C263.714 248.581 267.25 245.745 267.703 242.103C268.793 242.56 270.01 242.822 271.301 242.822C271.606 242.822 271.908 242.806 272.205 242.779L272.202 242.822C272.202 249.234 278.164 254.43 285.518 254.43C289.583 254.43 293.217 252.837 295.659 250.334C297.504 252.277 300.291 253.516 303.41 253.516C308.964 253.516 313.466 249.59 313.466 244.749V244.734C315.066 245.635 316.968 246.164 319.014 246.164C322.176 246.164 325 244.915 326.881 242.954C328.97 246.696 333.362 249.282 338.457 249.282C345.57 249.282 351.335 244.256 351.335 238.054C351.335 231.854 345.57 226.828 338.457 226.828" fill="#F8F9FA"/>
<path d="M311.965 282.425H257.266C233.397 282.425 214.046 265.557 214.046 244.749H355.185C355.185 265.557 335.834 282.425 311.965 282.425Z" fill="#5BBA6F"/>
<path d="M238.088 244.749H225.839C225.839 265.557 245.189 282.425 269.059 282.425H281.308C257.439 282.425 238.088 265.557 238.088 244.749Z" fill="#56C46D"/>
<path d="M356.958 244.749H212.274C211.054 244.749 210.064 243.886 210.064 242.822C210.064 241.759 211.054 240.896 212.274 240.896H356.958C358.178 240.896 359.167 241.759 359.167 242.822C359.167 243.886 358.178 244.749 356.958 244.749Z" fill="#56C36D"/>
</svg>
