<svg width="460" height="511" viewBox="0 0 460 511" fill="none" xmlns="http://www.w3.org/2000/svg">
<path d="M350.298 398.355C349.156 397.655 235.879 328.112 205.803 276.207C203.567 276.348 186.73 277.979 186.08 294.464L185.03 294.373C185.781 275.357 205.827 274.63 206.028 274.626L206.275 274.619L206.437 274.9C236.097 326.551 349.554 396.206 350.697 396.902L350.298 398.355Z" fill="#137547"/>
<path d="M87.3036 0.520126C96.3221 0.850586 124.698 13.0713 123.324 71.3427C121.952 129.616 132.416 141.691 121.267 145.774C110.117 149.855 21.7778 162.315 20.0617 134.23C18.3471 106.144 22.4631 -1.86101 87.3036 0.520126Z" fill="#453026"/>
<path d="M183.365 262.023L201.052 255.181C206.527 261.222 211.232 266.801 213.464 271.095C219.255 282.24 219.447 287.539 215.027 288.458C210.607 289.377 210.319 285.975 210.319 285.975C210.319 285.975 210.502 290.458 207.169 291.296C204.33 292.011 203.075 289.652 202.751 288.892C203.003 289.609 203.5 291.792 200.36 292.224C197.506 292.617 197.669 291.706 193.967 280.868C192.005 275.124 191.37 267.985 183.365 262.023Z" fill="#EEBF9B"/>
<path d="M117.688 125.769C117.688 125.769 191.837 229.773 206.189 257.542C206.189 257.542 199.187 273.856 189.035 271.773L114.997 177.178L117.688 125.769Z" fill="#FF6D00"/>
<path d="M132.325 296.633L106.782 397.405L27.1191 484.31L8.23193 473.266L76.6357 384.791L89.2172 302.693L132.325 296.633Z" fill="#456646"/>
<path d="M145.282 480.589L86.0792 305.559L37.8958 304.478L118.683 486.911L145.282 492.411V480.589Z" fill="#435F44"/>
<path d="M118.895 502.481L185.43 509.07C185.43 507.74 185.242 506.412 184.895 505.137C180.232 487.762 146.309 475.753 146.309 475.753C142.88 475.753 139.022 483.589 141.112 488.744L118.684 486.911L118.523 501.31H118.497L118.895 502.481Z" fill="#548756"/>
<path d="M118.458 505.103C118.434 507.286 120.214 509.07 122.418 509.07H185.43C185.43 507.74 185.242 506.412 184.895 505.137C184.895 505.137 151.588 505.748 144.89 503.091C138.351 500.487 119.381 501.284 118.523 501.31H118.497L118.458 505.103Z" fill="#435F44"/>
<path d="M1.48126 483.614L20.1644 503.869C24.0437 508.09 29.5348 510.481 35.2891 510.481H50.6303C52.4897 510.481 53.8275 508.911 53.7107 507.24C53.6966 506.822 53.5658 506.405 53.3478 506C51.6628 502.889 48.1464 498.293 40.8379 492.776C31.1186 485.415 44.5147 479.335 38.1795 473.055C38.1795 473.055 26.8625 470.317 20.0196 476.196C16.6496 479.105 12.8279 466.197 12.8279 466.197L3.93716 473.861L1.96093 475.561C-0.451358 477.637 -0.669395 481.265 1.48126 483.614Z" fill="#548756"/>
<path d="M1.48126 483.614L20.1644 503.869C24.0437 508.09 29.5348 510.481 35.2891 510.481H50.6303C52.4897 510.481 53.8275 508.911 53.7107 507.24C53.7107 507.24 34.5042 507.686 29.608 505.122C24.6978 502.558 15.0798 492.302 15.0798 490.861C15.0798 489.42 15.7619 486.625 13.4384 484.306C11.1133 482.001 3.93716 473.861 3.93716 473.861L1.96093 475.561C-0.451358 477.637 -0.669395 481.265 1.48126 483.614Z" fill="#435F44"/>
<path d="M83.9813 108.819C68.7756 109.002 50.4413 119.606 40.1848 135.226C40.1848 135.226 60.648 149.804 55.1351 177.14L37.8955 181.565C37.8955 181.565 11.5519 255.24 37.8955 304.478C37.8955 304.478 102.132 317.461 133.638 300.018C133.638 300.018 136 172.975 123.923 139.392C123.923 139.392 114.927 108.445 83.9813 108.819Z" fill="#FF6000"/>
<path d="M74.7854 97.0502L76.5265 115.874C76.5265 115.874 80.5288 122.223 87.6193 120.182C94.7097 118.141 92.9936 113.378 92.9936 113.378L91.7368 97.0502H74.7854Z" fill="#EEBF9B"/>
<path d="M76.3024 7.08589C89.9679 5.85363 118.531 14.7435 118.37 60.158C118.252 93.9355 97.2141 99.9316 84.9144 101.04C77.1698 101.738 46.2975 95.6449 43.4912 65.0391C40.6865 34.4334 55.8034 8.93274 76.3024 7.08589Z" fill="#EEBF9B"/>
<path d="M106.331 55.9609C104.421 55.8806 102.808 57.3522 102.729 59.2454C102.648 61.1385 104.132 62.7383 106.041 62.8186C107.95 62.8974 109.564 61.4274 109.645 59.5326C109.724 57.6395 108.241 56.0396 106.331 55.9609Z" fill="#41444D"/>
<path d="M71.1397 59.1327C69.2304 59.0524 67.617 60.524 67.5376 62.4172C67.4566 64.3104 68.9407 65.9102 70.85 65.9905C72.7608 66.0692 74.3727 64.5976 74.4536 62.7045C74.5331 60.8113 73.0505 59.2115 71.1397 59.1327Z" fill="#41444D"/>
<path d="M91.3724 76.9882C91.1341 76.9882 90.9037 76.8724 90.7651 76.6608C90.5501 76.3273 90.6467 75.8857 90.9815 75.6726L95.9712 72.4915C96.3075 72.2769 96.7514 72.3742 96.9679 72.7046C97.1828 73.0382 97.0862 73.4798 96.7514 73.6929L91.7617 76.8739L91.3724 76.9882Z" fill="#E29280"/>
<path d="M94.0712 69.8449C93.7924 69.8449 93.5277 69.6828 93.4093 69.4141C93.3237 69.2149 91.2992 64.4835 92.4298 58.7978C92.5076 58.4118 92.8876 58.1585 93.2754 58.2357C93.6663 58.3114 93.9217 58.6882 93.8438 59.0742C92.8035 64.309 94.7144 68.8011 94.7331 68.8459C94.8903 69.2087 94.7221 69.6287 94.3562 69.7862L94.0712 69.8449Z" fill="#E29280"/>
<path d="M110.369 49.3628L110.163 49.332L104.851 47.7615C104.47 47.6503 104.253 47.2519 104.367 46.8736C104.481 46.4968 104.876 46.2791 105.264 46.3933L110.574 47.9638C110.956 48.075 111.174 48.4734 111.059 48.8517C110.967 49.1621 110.68 49.3628 110.369 49.3628Z" fill="#41444D"/>
<path d="M62.5779 51.6203C62.2711 51.6203 61.9877 51.4257 61.8911 51.1215C61.7712 50.7447 61.9814 50.3433 62.3614 50.2244L69.5049 47.9869C69.8864 47.8711 70.2898 48.0764 70.4097 48.4532C70.5296 48.83 70.3193 49.2315 69.9394 49.3504L62.7944 51.5879L62.5779 51.6203Z" fill="#41444D"/>
<path d="M88.4654 90.7391C81.3781 90.7391 77.0191 84.5469 76.9631 84.4635C76.5145 83.8103 76.6858 82.9224 77.343 82.4777C77.5922 82.3109 77.8741 82.2291 78.1528 82.2291C78.6123 82.2291 79.0639 82.4484 79.3442 82.8529C79.5295 83.1185 82.9089 87.8623 88.4374 87.8623C90.1878 87.8623 92.1547 87.3866 94.3038 86.142C94.5327 86.0092 94.7819 85.9475 95.0295 85.9475C95.5247 85.9475 96.006 86.2007 96.2754 86.6547C96.6772 87.3372 96.4451 88.2128 95.7568 88.6096C93.0984 90.1507 90.6519 90.7391 88.4654 90.7391Z" fill="#E9AD90"/>
<path d="M91.6655 21.87C91.6655 21.87 114.296 26.9102 118.201 53.8748L119.769 70.9812L122.307 73.0922C122.307 73.0922 127.945 -3.26167 77.8349 1.25507C27.7251 5.77181 35.8511 74.3769 35.8511 74.3769L44.351 74.4094L43.8168 56.7284C43.8168 56.7284 79.263 44.3919 91.6655 21.87Z" fill="#453026"/>
<path d="M44.8864 58.9197C44.8864 58.9197 33.1598 58.3684 35.175 68.2142C37.1902 78.0614 45.43 72.1272 45.43 72.1272L44.8864 58.9197Z" fill="#EEBF9B"/>
<path d="M44.6145 62.2642L45.1534 68.7745C45.1534 68.7745 40.9533 70.0624 40.349 65.9641C39.7432 61.8658 44.6145 62.2642 44.6145 62.2642Z" fill="#E29280"/>
<path d="M20.4507 310.889C20.4507 310.889 21.1826 342.298 24.9809 343.373C28.7792 344.447 27.672 330.032 27.672 330.032C27.672 330.032 27.9834 345.309 31.4142 345.159C34.8466 345.011 33.3141 329.168 33.3141 329.168C33.3141 329.168 34.3949 343.998 38.4455 343.822C42.4961 343.646 39.112 325.198 39.112 325.198C39.112 325.198 49.0135 330.76 49.7454 328.456C50.4774 326.15 35.8822 307.62 35.8822 307.62L20.4507 310.889Z" fill="#DDBB98"/>
<path d="M40.1852 135.226C40.1852 135.226 20.4789 165.078 14.5283 214.714C8.57627 264.352 16.8036 316.159 16.8036 316.159C16.8036 316.159 32.8191 316.646 41.2208 307.62C41.2208 307.62 37.8959 194.062 55.1355 177.139C55.1355 177.139 68.6452 142.862 40.1852 135.226Z" fill="#FF6D00"/>
<path d="M277.878 461.64C277.878 461.64 271.053 485.59 275.603 493.574C280.154 501.557 281.205 500.69 282.779 499.996C284.355 499.301 285.93 496.177 288.731 497.393C291.531 498.606 295.571 509.695 295.571 509.695C295.571 509.695 281.73 511.624 274.728 508.153C267.726 504.681 256.875 489.755 259.851 462.854L274.027 456.433L277.878 461.64Z" fill="#BE7848"/>
<path d="M354.543 465.439C354.543 465.439 351.917 486.96 345.615 488.348C339.314 489.737 333.363 488.174 329.863 490.432C326.362 492.688 324.962 499.976 323.562 501.885C322.162 503.795 317.085 501.885 317.085 501.885C317.085 501.885 310.784 497.025 316.21 486.786C321.637 476.546 326.784 480.885 334.274 477.241C341.765 473.595 335.464 463.356 335.464 463.356L353.668 459.017L354.543 465.439Z" fill="#BE7848"/>
<path d="M382.521 374.862C382.521 374.862 384.51 361.012 389.889 359.452C395.266 357.891 393.837 374.573 393.837 374.573L382.521 374.862Z" fill="#D97343"/>
<path d="M377.297 372.76C377.297 372.76 364.168 355.751 358.218 356.966C352.266 358.18 360.168 387.898 360.168 387.898L377.297 372.76Z" fill="#E19044"/>
<path d="M372.921 376.404C372.921 376.404 361.454 360.297 358.743 361.131C356.031 361.965 362.943 385.603 362.943 385.603L372.921 376.404Z" fill="#D97343"/>
<path d="M238.934 406.343C238.934 406.343 211.103 386.817 230.269 348.288C230.269 348.288 221.196 346.986 219.694 355.837C219.694 355.837 211.628 356.614 214.253 364.426C214.253 364.426 208.74 362.606 210.053 374.321C210.053 374.321 202.298 380.31 209.851 390.202C209.851 390.202 195.349 402.697 230.269 413.372L238.934 406.343Z" fill="#D97343"/>
<path d="M220.817 489.13C221.605 499.022 230.794 509.956 237.094 509.695C243.397 509.436 252.071 509.695 252.071 509.695C252.071 509.695 249.173 496.157 245.759 494.335C242.346 492.513 236.833 495.637 236.833 495.637C232.37 490.432 242.693 471.687 242.693 471.687C260.546 476.112 269.125 463.617 269.125 463.617C311.397 476.112 350.779 463.617 350.779 463.617C350.779 463.617 355.767 477.414 368.37 492.774C380.972 508.134 398.3 509.175 405.389 509.695C412.478 510.216 415.892 505.531 415.892 505.531C415.892 505.531 411.954 494.857 408.015 491.993C404.077 489.13 393.837 497.2 393.837 497.2C378.871 488.869 368.37 451.381 370.733 442.789C373.095 434.198 390.424 420.922 394.1 418.318C397.776 415.715 432.432 421.181 442.408 419.879C446.872 419.297 450.863 413.611 453.909 407.498C457.678 399.959 460 391.764 460 391.764C458.193 389.629 452.459 387.192 444.793 384.766C423.537 378.049 387.346 371.384 378.085 371.197C365.482 370.936 359.181 395.409 350.779 398.793L319.168 399.272L264.401 400.095C239.195 403.219 228.201 399.209 222.13 428.471C221.121 433.303 221.269 439.208 221.92 444.955C223.264 456.764 226.729 467.948 226.729 467.948C226.729 467.948 220.029 479.236 220.817 489.13Z" fill="#E19044"/>
<path d="M389.374 382.479C391.258 383.149 392.238 385.209 391.562 387.078C390.885 388.946 388.809 389.917 386.923 389.247C385.039 388.576 384.059 386.517 384.735 384.649C385.412 382.779 387.488 381.807 389.374 382.479Z" fill="#2F2F2F"/>
<path d="M453.909 407.498C457.678 399.959 460 391.764 460 391.764C458.193 389.629 452.459 387.192 444.793 384.766C442.986 389.817 440.666 401.334 453.909 407.498Z" fill="#2F2F2F"/>
<path d="M353.929 393.066C353.929 393.066 368.871 422.823 383.161 427.914C383.161 427.914 383.635 435.56 375.459 435.673C375.459 435.673 346.776 411.422 344.736 397.989C347.682 394.535 349.64 394.743 353.929 393.066Z" fill="#137547"/>
<path d="M221.919 444.955C222.644 444.852 223.368 444.716 224.083 444.529C229.082 443.269 234.375 440.279 239.027 442.487C243.322 444.538 244.887 450.245 249.215 452.245C252.974 453.984 257.573 452.203 260.535 449.328C263.508 446.454 265.345 442.654 267.646 439.228C269.935 435.801 273.043 432.521 277.117 431.731C283.849 430.418 289.993 436.229 296.852 436.593C303.635 436.936 309.883 431.334 311.187 424.722C311.9 421.077 311.386 417.12 313.087 413.809C314.652 410.737 317.886 408.705 319.21 405.53C320.06 403.5 319.945 401.302 319.168 399.272L264.4 400.095C239.195 403.219 228.2 399.209 222.13 428.471C221.121 433.303 221.269 439.208 221.919 444.955Z" fill="#EAAC68"/>
</svg>
