<svg width="86" height="95" viewBox="0 0 86 95" fill="none" xmlns="http://www.w3.org/2000/svg">
<path d="M25.6931 12.9966C26.6755 13.1433 27.5916 12.4716 27.7394 11.4962C27.8871 10.5209 27.2106 9.61123 26.2283 9.46451C25.2459 9.31779 24.3298 9.98953 24.182 10.9649C24.0343 11.9402 24.7108 12.8499 25.6931 12.9966Z" fill="#137547"/>
<path d="M78.1055 94.8222C77.7814 94.7742 77.4895 94.6072 77.2979 94.36L61.448 74.0111C61.0629 73.5102 61.1836 72.8282 61.7184 72.4843C62.2533 72.1404 63.0013 72.2638 63.393 72.7605L79.2427 93.1093C79.5257 93.473 79.5487 93.9511 79.301 94.3242C79.0532 94.6973 78.5828 94.8933 78.1055 94.8222Z" fill="#137547"/>
<path d="M37.4055 79.7647C22.7221 77.5716 10.6947 67.0406 6.66682 52.8504C2.63893 38.6602 7.35774 23.4432 18.7267 13.96C19.2185 13.5475 19.8949 13.4278 20.5 13.6456C21.1051 13.8635 21.5468 14.386 21.6582 15.0155C21.7694 15.645 21.5333 16.2858 21.039 16.6952C7.7415 27.8142 5.00154 47.0874 14.6802 61.4263C24.3589 75.7651 43.3545 80.5749 58.767 72.5894C74.1795 64.6039 81.0701 46.3816 74.7595 30.2976C68.4489 14.2136 50.9589 5.42207 34.1675 9.89302C33.2095 10.1446 32.2271 9.57984 31.9699 8.62984C31.7128 7.67983 32.2776 6.70209 33.2335 6.44309C48.074 2.49045 63.8468 7.85607 73.1282 20.014C82.4095 32.172 83.3499 48.7001 75.5068 61.8187C67.6637 74.9373 52.5996 82.0325 37.4055 79.7647Z" fill="#137547"/>
<path d="M28.0265 48.6935C29.902 48.6935 31.4272 46.6606 31.4272 44.1615C31.4272 41.6623 29.902 39.6295 28.0265 39.6295C26.1507 39.6295 24.6255 41.6623 24.6255 44.1615C24.6255 46.6606 26.1507 48.6935 28.0265 48.6935Z" fill="#FF6D00"/>
<path d="M36.1329 48.6935C38.0063 48.6935 39.5335 46.6606 39.5335 44.1615C39.5335 41.6623 38.0065 39.6295 36.1329 39.6295C34.257 39.6295 32.7318 41.6623 32.7318 44.1615C32.7318 46.6606 34.257 48.6935 36.1329 48.6935Z" fill="#FF6D00"/>
<path d="M42.4817 46.4329C41.0066 46.1445 39.5514 47.4364 39.1666 49.3764C38.7824 51.3143 39.6356 53.0578 41.1108 53.346C42.5843 53.634 44.0413 52.3421 44.4255 50.4043C44.8103 48.4644 43.9549 46.7209 42.4817 46.4329Z" fill="#FF6D00"/>
<path d="M24.9926 49.3764C24.6078 47.4364 23.1528 46.1445 21.6776 46.4329C20.2043 46.7209 19.349 48.4642 19.7337 50.4045C20.1179 52.3423 21.5749 53.6342 23.0484 53.3462C24.5236 53.0578 25.3768 51.3143 24.9926 49.3764Z" fill="#FF6D00"/>
<path d="M37.2128 54.3636C36.8126 51.9082 34.6635 50.027 32.0793 50.027C29.4952 50.027 27.3459 51.9082 26.9459 54.3636C25.1065 55.1604 23.8173 56.9826 23.8173 59.0989C23.8173 61.9464 26.1504 64.2629 29.0183 64.2629C30.1619 64.2629 31.2199 63.8937 32.0795 63.2701C32.939 63.8937 33.997 64.2629 35.1408 64.2629C38.0087 64.2629 40.3418 61.9464 40.3418 59.0989C40.3416 56.9826 39.052 55.1604 37.2128 54.3636Z" fill="#FF6D00"/>
<path d="M49.424 30.5953C51.2995 30.5953 52.8246 28.5624 52.8246 26.0633C52.8246 23.5641 51.2995 21.5312 49.424 21.5312C47.5481 21.5312 46.0229 23.5641 46.0229 26.0633C46.0229 28.5624 47.5481 30.5953 49.424 30.5953Z" fill="#FF6D00"/>
<path d="M57.5306 30.5953C59.404 30.5953 60.9312 28.5624 60.9312 26.0633C60.9312 23.5641 59.4042 21.5312 57.5306 21.5312C55.6547 21.5312 54.1295 23.5641 54.1295 26.0633C54.1295 28.5624 55.6547 30.5953 57.5306 30.5953Z" fill="#FF6D00"/>
<path d="M63.8794 28.3348C62.4043 28.0464 60.9491 29.3382 60.5643 31.2783C60.1802 33.2161 61.0333 34.9597 62.5085 35.2479C63.982 35.5359 65.439 34.244 65.8232 32.3061C66.208 30.3663 65.3526 28.6228 63.8794 28.3348Z" fill="#FF6D00"/>
<path d="M44.4459 35.248C45.9209 34.9596 46.7742 33.2161 46.3901 31.2784C46.0053 29.3384 44.5503 28.0465 43.075 28.3349C41.6017 28.6229 40.7464 30.3662 41.1312 32.3064C41.5156 34.2441 42.9726 35.536 44.4459 35.248Z" fill="#FF6D00"/>
<path d="M58.6105 36.2655C58.2103 33.8101 56.0612 31.9288 53.477 31.9288C50.8929 31.9288 48.7436 33.8101 48.3436 36.2655C46.5042 37.0622 45.215 38.8844 45.215 41.0007C45.215 43.8482 47.5481 46.1648 50.416 46.1648C51.5596 46.1648 52.6176 45.7955 53.4772 45.1719C54.3367 45.7955 55.3947 46.1648 56.5385 46.1648C59.4064 46.1648 61.7395 43.8482 61.7395 41.0007C61.7393 38.8844 60.4497 37.0622 58.6105 36.2655Z" fill="#FF6D00"/>
</svg>
