<svg width="40" height="40" viewBox="0 0 40 40" fill="none" xmlns="http://www.w3.org/2000/svg">
<rect width="40" height="40" rx="2.5" fill="white"/>
<path d="M19.5755 7C12.0792 7 6 13.103 6 20.6315C6 26.653 9.88988 31.7615 15.2868 33.5656C15.9657 33.6911 16.2135 33.2703 16.2135 32.9088C16.2135 32.5846 16.2016 31.7275 16.1948 30.5904C12.4186 31.4136 11.621 28.7626 11.621 28.7626C11.0049 27.1877 10.1139 26.7685 10.1139 26.7685C8.88007 25.9233 10.2055 25.9402 10.2055 25.9402C11.5684 26.037 12.2846 27.3455 12.2846 27.3455C13.4963 29.4279 15.4633 28.8271 16.2372 28.4775C16.3594 27.5967 16.7107 26.9959 17.0994 26.6547C14.0852 26.3102 10.915 25.1409 10.915 19.9187C10.915 18.4303 11.4445 17.2135 12.3134 16.2597C12.1726 15.9152 11.7075 14.5286 12.4458 12.6532C12.4458 12.6532 13.5863 12.2866 16.1795 14.05C17.2623 13.7479 18.4232 13.5968 19.5789 13.5917C20.7313 13.5985 21.8938 13.7479 22.9783 14.0517C25.5699 12.2883 26.7087 12.6549 26.7087 12.6549C27.4486 14.532 26.9836 15.9169 26.8444 16.2614C27.7151 17.2152 28.2395 18.432 28.2395 19.9204C28.2395 25.1562 25.0658 26.3085 22.0415 26.6463C22.5286 27.0672 22.9631 27.8988 22.9631 29.1699C22.9631 30.9927 22.9461 32.4624 22.9461 32.9088C22.9461 33.2736 23.1905 33.6979 23.8795 33.5639C29.268 31.7581 33.1545 26.6514 33.1545 20.6315C33.1545 13.103 27.0753 7 19.5755 7Z" fill="#FF6D00"/>
</svg>
