<svg width="40" height="40" viewBox="0 0 40 40" fill="none" xmlns="http://www.w3.org/2000/svg">
<rect x="7" y="6" width="27" height="28" fill="#FF6D00"/>
<path d="M20.4279 9.72412C14.9399 9.72412 10.4767 14.1855 10.4742 19.6695C10.4736 21.5488 10.9998 23.3789 11.9955 24.9625L12.2321 25.3387L11.2268 29.0091L14.9924 28.0215L15.3558 28.237C16.8832 29.1434 18.6343 29.6228 20.4196 29.6234H20.4236C25.9073 29.6234 30.3705 25.1617 30.3729 19.6774C30.3739 17.0197 29.3399 14.5209 27.4616 12.641C25.5832 10.7611 23.085 9.72504 20.4279 9.72412V9.72412ZM26.2799 23.9456C26.0306 24.6439 24.8358 25.2814 24.2612 25.3674C23.7457 25.4443 23.0939 25.4764 22.3773 25.249C21.9428 25.1111 21.3858 24.9271 20.672 24.6191C17.6718 23.324 15.7123 20.304 15.5627 20.1044C15.4132 19.9048 14.3414 18.483 14.3414 17.0111C14.3414 15.5396 15.1141 14.816 15.3882 14.5169C15.6625 14.2175 15.9866 14.1428 16.1859 14.1428C16.3852 14.1428 16.5848 14.1446 16.759 14.1531C16.9428 14.1623 17.1893 14.0833 17.432 14.6664C17.6813 15.2652 18.2794 16.7368 18.3542 16.8863C18.429 17.0361 18.4787 17.2107 18.3792 17.4103C18.2794 17.6099 17.8088 18.2111 17.6315 18.4329C17.4994 18.5977 17.3257 18.7439 17.5003 19.0433C17.6746 19.3423 18.2752 20.3217 19.1641 21.1145C20.3067 22.1332 21.2705 22.4487 21.5695 22.5986C21.8683 22.7481 22.0429 22.7231 22.2174 22.5238C22.3917 22.3242 22.9651 21.6507 23.1644 21.3513C23.3637 21.0519 23.5632 21.102 23.8373 21.2018C24.1116 21.3013 25.582 22.0248 25.8811 22.1744C26.1801 22.3242 26.3794 22.399 26.4542 22.5238C26.5292 22.6486 26.5292 23.2471 26.2799 23.9456V23.9456Z" fill="white"/>
<path d="M37.1152 0H2.88483C1.2915 0 0 1.2915 0 2.88483V37.1152C0 38.7085 1.2915 40 2.88483 40H37.1152C38.7085 40 40 38.7085 40 37.1152V2.88483C40 1.2915 38.7085 0 37.1152 0ZM20.4239 31.6446C20.4242 31.6446 20.4236 31.6446 20.4239 31.6446H20.419C18.4155 31.6437 16.4468 31.1414 14.6985 30.188L8.35297 31.8521L10.0513 25.6509C9.0036 23.8364 8.45245 21.7776 8.45337 19.6686C8.45612 13.0707 13.826 7.70294 20.4239 7.70294C23.6258 7.70416 26.6315 8.9505 28.8913 11.2122C31.1514 13.4741 32.3953 16.4807 32.3941 19.678C32.3914 26.2762 27.0209 31.6446 20.4239 31.6446Z" fill="white"/>
</svg>
