<svg width="40" height="40" viewBox="0 0 40 40" fill="none" xmlns="http://www.w3.org/2000/svg">
<rect width="40" height="40" rx="2.5" fill="white"/>
<path d="M23.9615 10.5H27.4231C27.7417 10.5 28 10.2481 28 9.93746V6.56246C28 6.25186 27.7417 6 27.4231 6H23.9615C20.4582 6.00374 17.6192 8.77177 17.6154 12.1875V16.125H13.5769C13.2583 16.125 13 16.3768 13 16.6875V20.0625C13 20.3731 13.2583 20.625 13.5769 20.625H17.6154V32.4375C17.6154 32.7481 17.8737 33 18.1923 33H21.6539C21.9725 33 22.2308 32.7481 22.2308 32.4375V20.625H26.2693C26.5175 20.6248 26.7378 20.4699 26.8162 20.2403L27.97 16.8653C28.0707 16.5705 27.9073 16.252 27.605 16.1538C27.5464 16.1348 27.4849 16.125 27.4231 16.125H22.2308V12.1875C22.2308 11.2555 23.0057 10.5 23.9615 10.5Z" fill="#FF6D00"/>
</svg>
