<svg width="185" height="50" viewBox="0 0 185 50" fill="none" xmlns="http://www.w3.org/2000/svg">
<path d="M21.8906 16.519C22.1164 16.4459 22.403 16.0893 22.4178 15.8631C22.7491 10.4082 18.0653 3.13606 16.3786 0.70813C15.0207 1.22866 13.6994 2.07001 12.4796 3.35218C12.4796 3.35218 10.0436 4.92435 9.17932 12.5632C13.7356 18.238 19.3972 17.31 21.8906 16.519Z" fill="#FF6D00"/>
<path d="M39.9604 6.83647L32.496 5.08429C32.496 5.08429 32.2832 3.35235 30.1666 2.64068C28.6238 2.12069 23.3079 -0.817548 18.0776 0.22023C20.055 3.11488 24.4539 10.25 24.1061 15.9571C24.0544 16.8544 23.3126 17.7815 22.4209 18.0649C21.5637 18.3392 20.0253 18.7189 18.1555 18.7189C15.4465 18.7189 12.0441 17.9177 8.97875 14.8374C8.91863 15.8163 8.88431 16.875 8.87824 18.0206C8.84391 23.9294 1.03947 29.5317 1.03947 29.5317L0 31.6034C2.12161 36.0212 5.44748 39.7971 9.57653 42.5375C9.76371 39.7154 10.4995 37.5047 11.3518 35.8434C12.9659 32.6879 15.2296 30.9366 16.3847 30.1956C16.6332 23.6829 18.8312 21.7796 20.6649 21.3444C21.2282 21.2102 21.822 21.3258 22.2891 21.663C22.8207 22.0446 23.1626 22.6743 23.1973 23.3505C23.2916 25.101 24.3675 26.3299 24.8776 26.818C25.7049 26.892 26.4946 27.0181 27.238 27.1913L27.3063 26.5772L27.8745 21.2713C27.9708 20.3757 28.8077 19.6208 29.7342 19.4932C33.2521 19.0004 41.0903 16.9963 41.5997 8.85257C41.6583 7.95432 40.8696 7.05096 39.9604 6.83647ZM28.3309 8.72818C27.8043 8.72818 27.3766 8.31873 27.3766 7.81169C27.3766 7.30466 27.8043 6.8952 28.3309 6.8952C28.8587 6.8952 29.2843 7.30466 29.2843 7.81169C29.2824 8.31782 28.8578 8.72818 28.3309 8.72818Z" fill="#FF6D00"/>
<path d="M32.4979 32.9759C32.2157 30.6671 28.8269 28.7646 24.4479 28.4943C24.4479 28.4943 22.1228 26.7753 21.9667 23.8081C21.9411 23.3589 21.592 22.9124 21.1385 23.02C19.9684 23.2969 17.9816 24.7415 17.8826 31.3396C17.8826 31.3396 11.5184 34.4274 11.0585 43.3294C15.138 45.6866 19.892 47.0693 24.9662 47.1497L24.9093 45.8745C24.8883 45.4252 25.2272 44.9326 25.6643 44.7752L31.0852 42.82C31.0852 42.82 33.6275 42.9572 34.685 41.1217C35.2204 40.1964 35.7172 39.5499 36.0833 39.1333C36.3827 38.7906 36.378 38.3007 36.0429 37.9875C34.9353 36.9594 32.7088 34.7013 32.4979 32.9759ZM29.2822 35.2107C28.7565 35.2107 28.3298 34.8023 28.3298 34.2949C28.3298 33.7864 28.7565 33.3772 29.2822 33.3772C29.8098 33.3772 30.2366 33.7864 30.2366 34.2949C30.2367 34.8022 29.81 35.2107 29.2822 35.2107Z" fill="#137547"/>
<path d="M57.7739 21.2233C57.5473 20.6233 57.3339 20.0367 57.1339 19.4633C56.9339 18.8767 56.7273 18.2833 56.5139 17.6833H50.2339L48.9739 21.2233H46.9539C47.4873 19.7567 47.9873 18.4033 48.4539 17.1633C48.9206 15.91 49.3739 14.7233 49.8139 13.6033C50.2673 12.4833 50.7139 11.4167 51.1539 10.4033C51.5939 9.37666 52.0539 8.36333 52.5339 7.36333H54.3139C54.7939 8.36333 55.2539 9.37666 55.6939 10.4033C56.1339 11.4167 56.5739 12.4833 57.0139 13.6033C57.4673 14.7233 57.9273 15.91 58.3939 17.1633C58.8606 18.4033 59.3606 19.7567 59.8939 21.2233H57.7739ZM55.9539 16.0833C55.5273 14.9233 55.1006 13.8033 54.6739 12.7233C54.2606 11.63 53.8273 10.5833 53.3739 9.58333C52.9073 10.5833 52.4606 11.63 52.0339 12.7233C51.6206 13.8033 51.2073 14.9233 50.7939 16.0833H55.9539ZM73.1557 14.2833C73.1557 15.4833 72.969 16.53 72.5957 17.4233C72.2223 18.3033 71.6957 19.0367 71.0157 19.6233C70.3357 20.1967 69.5223 20.63 68.5757 20.9233C67.629 21.2033 66.589 21.3433 65.4557 21.3433C64.8957 21.3433 64.2757 21.3167 63.5957 21.2633C62.929 21.2233 62.3223 21.1367 61.7757 21.0033V7.56333C62.3223 7.42999 62.929 7.34333 63.5957 7.30333C64.2757 7.24999 64.8957 7.22333 65.4557 7.22333C66.589 7.22333 67.629 7.36999 68.5757 7.66333C69.5223 7.94333 70.3357 8.37666 71.0157 8.96333C71.6957 9.53666 72.2223 10.27 72.5957 11.1633C72.969 12.0433 73.1557 13.0833 73.1557 14.2833ZM65.6157 19.6433C67.4557 19.6433 68.829 19.1767 69.7357 18.2433C70.6423 17.2967 71.0957 15.9767 71.0957 14.2833C71.0957 12.59 70.6423 11.2767 69.7357 10.3433C68.829 9.39666 67.4557 8.92333 65.6157 8.92333C65.069 8.92333 64.6423 8.92999 64.3357 8.94333C64.0423 8.95666 63.8357 8.96999 63.7157 8.98333V19.5833C63.8357 19.5967 64.0423 19.61 64.3357 19.6233C64.6423 19.6367 65.069 19.6433 65.6157 19.6433ZM75.4735 14.2833C75.4735 13.0967 75.6468 12.05 75.9935 11.1433C76.3535 10.2367 76.8335 9.48333 77.4335 8.88333C78.0468 8.26999 78.7535 7.80999 79.5535 7.50333C80.3668 7.19666 81.2268 7.04333 82.1335 7.04333C83.0268 7.04333 83.8668 7.19666 84.6535 7.50333C85.4535 7.80999 86.1535 8.26999 86.7535 8.88333C87.3535 9.48333 87.8268 10.2367 88.1735 11.1433C88.5335 12.05 88.7135 13.0967 88.7135 14.2833C88.7135 15.47 88.5335 16.5167 88.1735 17.4233C87.8268 18.33 87.3535 19.09 86.7535 19.7033C86.1535 20.3033 85.4535 20.7567 84.6535 21.0633C83.8668 21.37 83.0268 21.5233 82.1335 21.5233C81.2268 21.5233 80.3668 21.37 79.5535 21.0633C78.7535 20.7567 78.0468 20.3033 77.4335 19.7033C76.8335 19.09 76.3535 18.33 75.9935 17.4233C75.6468 16.5167 75.4735 15.47 75.4735 14.2833ZM77.5135 14.2833C77.5135 15.1233 77.6201 15.89 77.8335 16.5833C78.0468 17.2633 78.3468 17.8433 78.7335 18.3233C79.1335 18.8033 79.6135 19.1767 80.1735 19.4433C80.7468 19.6967 81.3868 19.8233 82.0935 19.8233C82.8001 19.8233 83.4335 19.6967 83.9935 19.4433C84.5535 19.1767 85.0268 18.8033 85.4135 18.3233C85.8135 17.8433 86.1201 17.2633 86.3335 16.5833C86.5468 15.89 86.6535 15.1233 86.6535 14.2833C86.6535 13.4433 86.5468 12.6833 86.3335 12.0033C86.1201 11.31 85.8135 10.7233 85.4135 10.2433C85.0268 9.76333 84.5535 9.39666 83.9935 9.14333C83.4335 8.87666 82.8001 8.74333 82.0935 8.74333C81.3868 8.74333 80.7468 8.87666 80.1735 9.14333C79.6135 9.39666 79.1335 9.76333 78.7335 10.2433C78.3468 10.7233 78.0468 11.31 77.8335 12.0033C77.6201 12.6833 77.5135 13.4433 77.5135 14.2833ZM95.2799 7.22333C97.2265 7.22333 98.7199 7.59666 99.7599 8.34333C100.813 9.07666 101.34 10.1767 101.34 11.6433C101.34 12.4433 101.193 13.13 100.9 13.7033C100.62 14.2633 100.207 14.7233 99.6599 15.0833C99.1266 15.43 98.4732 15.6833 97.6999 15.8433C96.9265 16.0033 96.0532 16.0833 95.0799 16.0833H93.5399V21.2233H91.5999V7.56333C92.1465 7.42999 92.7532 7.34333 93.4199 7.30333C94.0999 7.24999 94.7199 7.22333 95.2799 7.22333ZM95.4399 8.92333C94.6132 8.92333 93.9799 8.94333 93.5399 8.98333V14.4233H94.9999C95.6665 14.4233 96.2665 14.3833 96.7999 14.3033C97.3332 14.21 97.7799 14.0633 98.1399 13.8633C98.5132 13.65 98.7999 13.3633 98.9999 13.0033C99.1999 12.6433 99.2999 12.1833 99.2999 11.6233C99.2999 11.09 99.1932 10.65 98.9799 10.3033C98.7799 9.95666 98.4999 9.68333 98.1399 9.48333C97.7932 9.26999 97.3865 9.12333 96.9199 9.04333C96.4532 8.96333 95.9599 8.92333 95.4399 8.92333ZM113.028 7.36333V9.04333H108.668V21.2233H106.728V9.04333H102.368V7.36333H113.028ZM123.385 7.22333C125.332 7.22333 126.825 7.59666 127.865 8.34333C128.919 9.07666 129.445 10.1767 129.445 11.6433C129.445 12.4433 129.299 13.13 129.005 13.7033C128.725 14.2633 128.312 14.7233 127.765 15.0833C127.232 15.43 126.579 15.6833 125.805 15.8433C125.032 16.0033 124.159 16.0833 123.185 16.0833H121.645V21.2233H119.705V7.56333C120.252 7.42999 120.859 7.34333 121.525 7.30333C122.205 7.24999 122.825 7.22333 123.385 7.22333ZM123.545 8.92333C122.719 8.92333 122.085 8.94333 121.645 8.98333V14.4233H123.105C123.772 14.4233 124.372 14.3833 124.905 14.3033C125.439 14.21 125.885 14.0633 126.245 13.8633C126.619 13.65 126.905 13.3633 127.105 13.0033C127.305 12.6433 127.405 12.1833 127.405 11.6233C127.405 11.09 127.299 10.65 127.085 10.3033C126.885 9.95666 126.605 9.68333 126.245 9.48333C125.899 9.26999 125.492 9.12333 125.025 9.04333C124.559 8.96333 124.065 8.92333 123.545 8.92333ZM131.873 21.2233V7.36333H140.333V9.02333H133.813V13.1433H139.613V14.7633H133.813V19.5633H140.833V21.2233H131.873ZM152.559 7.36333V9.04333H148.199V21.2233H146.259V9.04333H141.899V7.36333H152.559ZM157.828 19.8433C159.854 19.8433 160.868 19.15 160.868 17.7633C160.868 17.3367 160.774 16.9767 160.588 16.6833C160.414 16.3767 160.174 16.1167 159.868 15.9033C159.561 15.6767 159.208 15.4833 158.808 15.3233C158.421 15.1633 158.008 15.0033 157.568 14.8433C157.061 14.67 156.581 14.4767 156.128 14.2633C155.674 14.0367 155.281 13.7767 154.948 13.4833C154.614 13.1767 154.348 12.8167 154.148 12.4033C153.961 11.99 153.868 11.49 153.868 10.9033C153.868 9.68999 154.281 8.74333 155.108 8.06333C155.934 7.38333 157.074 7.04333 158.528 7.04333C159.368 7.04333 160.128 7.13666 160.808 7.32333C161.501 7.49666 162.008 7.68999 162.328 7.90333L161.708 9.48333C161.428 9.30999 161.008 9.14333 160.448 8.98333C159.901 8.80999 159.261 8.72333 158.528 8.72333C158.154 8.72333 157.808 8.76333 157.488 8.84333C157.168 8.92333 156.888 9.04333 156.648 9.20333C156.408 9.36333 156.214 9.56999 156.068 9.82333C155.934 10.0633 155.868 10.35 155.868 10.6833C155.868 11.0567 155.941 11.37 156.088 11.6233C156.234 11.8767 156.441 12.1033 156.708 12.3033C156.974 12.49 157.281 12.6633 157.628 12.8233C157.988 12.9833 158.381 13.1433 158.808 13.3033C159.408 13.5433 159.954 13.7833 160.448 14.0233C160.954 14.2633 161.388 14.55 161.748 14.8833C162.121 15.2167 162.408 15.6167 162.608 16.0833C162.808 16.5367 162.908 17.09 162.908 17.7433C162.908 18.9567 162.461 19.89 161.568 20.5433C160.688 21.1967 159.441 21.5233 157.828 21.5233C157.281 21.5233 156.774 21.4833 156.308 21.4033C155.854 21.3367 155.448 21.2567 155.088 21.1633C154.728 21.0567 154.414 20.95 154.148 20.8433C153.894 20.7233 153.694 20.6233 153.548 20.5433L154.128 18.9433C154.434 19.1167 154.901 19.31 155.528 19.5233C156.154 19.7367 156.921 19.8433 157.828 19.8433Z" fill="#137547"/>
<path d="M68.2373 42.3273C68.0726 41.8853 67.9166 41.4606 67.7693 41.0533C67.6219 40.6459 67.4789 40.2473 67.3403 39.8573H62.9593C62.8119 40.2473 62.6646 40.6459 62.5173 41.0533C62.3699 41.4606 62.2183 41.8853 62.0623 42.3273H61.1393C61.4859 41.3913 61.8109 40.5203 62.1143 39.7143C62.4176 38.8996 62.7123 38.1326 62.9983 37.4133C63.2929 36.6853 63.5833 35.9876 63.8693 35.3203C64.1553 34.6529 64.4586 33.9856 64.7793 33.3183H65.5593C65.8799 33.9856 66.1833 34.6529 66.4693 35.3203C66.7553 35.9876 67.0413 36.6853 67.3273 37.4133C67.6219 38.1326 67.9209 38.8996 68.2243 39.7143C68.5276 40.5203 68.8569 41.3913 69.2123 42.3273H68.2373ZM65.1433 34.3323C64.8139 35.0776 64.4933 35.8359 64.1813 36.6073C63.8779 37.3786 63.5616 38.2106 63.2323 39.1033H67.0673C66.7379 38.2106 66.4173 37.3786 66.1053 36.6073C65.7933 35.8359 65.4726 35.0776 65.1433 34.3323ZM75.7984 42.1193C75.5471 42.2059 75.2264 42.2883 74.8364 42.3663C74.4464 42.4443 73.9524 42.4833 73.3544 42.4833C72.8604 42.4833 72.4097 42.4053 72.0024 42.2493C71.6037 42.0846 71.2571 41.8506 70.9624 41.5473C70.6764 41.2439 70.4511 40.8756 70.2864 40.4423C70.1304 40.0089 70.0524 39.5193 70.0524 38.9733C70.0524 38.4619 70.1174 37.9939 70.2474 37.5693C70.3861 37.1359 70.5854 36.7633 70.8454 36.4513C71.1054 36.1393 71.4217 35.8966 71.7944 35.7233C72.1757 35.5499 72.6091 35.4633 73.0944 35.4633C73.5364 35.4633 73.9177 35.5283 74.2384 35.6583C74.5677 35.7796 74.8061 35.8966 74.9534 36.0093V32.3953L75.7984 32.2393V42.1193ZM74.9534 36.8283C74.8754 36.7676 74.7757 36.7026 74.6544 36.6333C74.5417 36.5639 74.4074 36.4989 74.2514 36.4383C74.0954 36.3776 73.9264 36.3299 73.7444 36.2953C73.5624 36.2519 73.3717 36.2303 73.1724 36.2303C72.7564 36.2303 72.4054 36.3039 72.1194 36.4513C71.8421 36.5986 71.6167 36.7979 71.4434 37.0493C71.2701 37.2919 71.1444 37.5823 71.0664 37.9203C70.9884 38.2496 70.9494 38.6006 70.9494 38.9733C70.9494 39.8573 71.1704 40.5376 71.6124 41.0143C72.0544 41.4823 72.6394 41.7163 73.3674 41.7163C73.7834 41.7163 74.1171 41.6989 74.3684 41.6643C74.6284 41.6209 74.8234 41.5776 74.9534 41.5343V36.8283ZM83.7675 38.9733C83.7675 39.5019 83.6895 39.9829 83.5335 40.4163C83.3862 40.8496 83.1738 41.2179 82.8965 41.5213C82.6278 41.8246 82.3072 42.0629 81.9345 42.2363C81.5618 42.4009 81.1502 42.4833 80.6995 42.4833C80.2488 42.4833 79.8372 42.4009 79.4645 42.2363C79.0918 42.0629 78.7668 41.8246 78.4895 41.5213C78.2208 41.2179 78.0085 40.8496 77.8525 40.4163C77.7052 39.9829 77.6315 39.5019 77.6315 38.9733C77.6315 38.4446 77.7052 37.9636 77.8525 37.5303C78.0085 37.0969 78.2208 36.7286 78.4895 36.4253C78.7668 36.1133 79.0918 35.8749 79.4645 35.7103C79.8372 35.5369 80.2488 35.4503 80.6995 35.4503C81.1502 35.4503 81.5618 35.5369 81.9345 35.7103C82.3072 35.8749 82.6278 36.1133 82.8965 36.4253C83.1738 36.7286 83.3862 37.0969 83.5335 37.5303C83.6895 37.9636 83.7675 38.4446 83.7675 38.9733ZM82.8705 38.9733C82.8705 38.1326 82.6755 37.4653 82.2855 36.9713C81.8955 36.4686 81.3668 36.2173 80.6995 36.2173C80.0322 36.2173 79.5035 36.4686 79.1135 36.9713C78.7235 37.4653 78.5285 38.1326 78.5285 38.9733C78.5285 39.8139 78.7235 40.4813 79.1135 40.9753C79.5035 41.4693 80.0322 41.7163 80.6995 41.7163C81.3668 41.7163 81.8955 41.4693 82.2855 40.9753C82.6755 40.4813 82.8705 39.8139 82.8705 38.9733ZM86.3939 35.6063H89.0719V36.3213H86.3939V39.8963C86.3939 40.2776 86.4242 40.5896 86.4849 40.8323C86.5542 41.0663 86.6496 41.2483 86.7709 41.3783C86.8922 41.5083 87.0396 41.5949 87.2129 41.6383C87.3862 41.6816 87.5769 41.7033 87.7849 41.7033C88.1402 41.7033 88.4262 41.6643 88.6429 41.5863C88.8596 41.4996 89.0286 41.4216 89.1499 41.3523L89.3579 42.0543C89.2366 42.1323 89.0242 42.2233 88.7209 42.3273C88.4176 42.4226 88.0882 42.4703 87.7329 42.4703C87.3169 42.4703 86.9659 42.4183 86.6799 42.3143C86.4026 42.2016 86.1772 42.0369 86.0039 41.8203C85.8392 41.5949 85.7222 41.3176 85.6529 40.9883C85.5836 40.6589 85.5489 40.2689 85.5489 39.8183V33.6303L86.3939 33.4743V35.6063ZM90.2253 38.9603C90.2253 38.3709 90.3076 37.8596 90.4723 37.4263C90.6456 36.9843 90.8666 36.6159 91.1353 36.3213C91.4126 36.0266 91.7246 35.8099 92.0713 35.6713C92.4266 35.5239 92.7906 35.4503 93.1633 35.4503C93.9866 35.4503 94.6409 35.7189 95.1263 36.2563C95.6203 36.7936 95.8673 37.6213 95.8673 38.7393C95.8673 38.8086 95.8629 38.8779 95.8543 38.9473C95.8543 39.0166 95.8499 39.0816 95.8413 39.1423H91.1223C91.1483 39.9656 91.3519 40.5983 91.7333 41.0403C92.1146 41.4823 92.7213 41.7033 93.5533 41.7033C94.0126 41.7033 94.3766 41.6599 94.6453 41.5733C94.9139 41.4866 95.1089 41.4129 95.2303 41.3523L95.3863 42.0803C95.2649 42.1496 95.0353 42.2319 94.6973 42.3273C94.3679 42.4226 93.9779 42.4703 93.5273 42.4703C92.9379 42.4703 92.4353 42.3836 92.0193 42.2103C91.6033 42.0369 91.2609 41.7943 90.9923 41.4823C90.7236 41.1703 90.5286 40.8019 90.4073 40.3773C90.2859 39.9439 90.2253 39.4716 90.2253 38.9603ZM94.9963 38.4273C94.9789 37.7253 94.8143 37.1793 94.5023 36.7893C94.1903 36.3993 93.7483 36.2043 93.1763 36.2043C92.8729 36.2043 92.5999 36.2649 92.3573 36.3863C92.1233 36.5076 91.9153 36.6723 91.7333 36.8803C91.5599 37.0796 91.4213 37.3136 91.3173 37.5823C91.2219 37.8509 91.1656 38.1326 91.1483 38.4273H94.9963ZM105.869 42.0933C105.618 42.1626 105.28 42.2406 104.855 42.3273C104.431 42.4139 103.911 42.4573 103.295 42.4573C102.793 42.4573 102.372 42.3836 102.034 42.2363C101.696 42.0889 101.423 41.8809 101.215 41.6123C101.007 41.3436 100.856 41.0186 100.76 40.6373C100.674 40.2559 100.63 39.8356 100.63 39.3763V35.6063H101.475V39.1033C101.475 39.5799 101.51 39.9829 101.579 40.3123C101.649 40.6416 101.761 40.9103 101.917 41.1183C102.073 41.3176 102.273 41.4649 102.515 41.5603C102.767 41.6469 103.07 41.6903 103.425 41.6903C103.824 41.6903 104.171 41.6686 104.465 41.6253C104.76 41.5819 104.946 41.5429 105.024 41.5083V35.6063H105.869V42.0933ZM108.11 35.8403C108.361 35.7709 108.686 35.6929 109.085 35.6063C109.492 35.5196 110.016 35.4763 110.658 35.4763C111.507 35.4763 112.122 35.7233 112.504 36.2173C112.547 36.1826 112.629 36.1263 112.751 36.0483C112.881 35.9616 113.041 35.8749 113.232 35.7883C113.422 35.7016 113.643 35.6279 113.895 35.5673C114.155 35.5066 114.441 35.4763 114.753 35.4763C115.264 35.4763 115.676 35.5543 115.988 35.7103C116.308 35.8576 116.555 36.0699 116.729 36.3473C116.902 36.6159 117.019 36.9409 117.08 37.3223C117.14 37.7036 117.171 38.1196 117.171 38.5703V42.3273H116.326V38.8433C116.326 38.4013 116.304 38.0199 116.261 37.6993C116.226 37.3699 116.148 37.1013 116.027 36.8933C115.914 36.6766 115.749 36.5163 115.533 36.4123C115.316 36.2996 115.034 36.2433 114.688 36.2433C114.428 36.2433 114.189 36.2693 113.973 36.3213C113.765 36.3646 113.583 36.4209 113.427 36.4903C113.271 36.5596 113.141 36.6289 113.037 36.6983C112.941 36.7676 112.872 36.8196 112.829 36.8543C112.907 37.0796 112.963 37.3353 112.998 37.6213C113.041 37.8986 113.063 38.1933 113.063 38.5053V42.3273H112.218V38.8433C112.218 38.4013 112.196 38.0199 112.153 37.6993C112.118 37.3699 112.04 37.1013 111.919 36.8933C111.797 36.6766 111.624 36.5163 111.399 36.4123C111.182 36.2996 110.892 36.2433 110.528 36.2433C110.12 36.2433 109.774 36.2649 109.488 36.3083C109.21 36.3516 109.033 36.3906 108.955 36.4253V42.3273H108.11V35.8403ZM124.409 41.7163C124.739 41.7163 125.025 41.7076 125.267 41.6903C125.519 41.6643 125.731 41.6339 125.904 41.5993V39.2333C125.809 39.1899 125.657 39.1466 125.449 39.1033C125.241 39.0513 124.955 39.0253 124.591 39.0253C124.383 39.0253 124.167 39.0426 123.941 39.0773C123.716 39.1033 123.508 39.1683 123.317 39.2723C123.127 39.3676 122.971 39.5019 122.849 39.6753C122.728 39.8486 122.667 40.0783 122.667 40.3643C122.667 40.6156 122.706 40.8279 122.784 41.0013C122.871 41.1746 122.988 41.3133 123.135 41.4173C123.291 41.5213 123.473 41.5993 123.681 41.6513C123.898 41.6946 124.141 41.7163 124.409 41.7163ZM124.331 35.4503C124.773 35.4503 125.146 35.5153 125.449 35.6453C125.761 35.7666 126.013 35.9399 126.203 36.1653C126.394 36.3819 126.533 36.6419 126.619 36.9453C126.706 37.2486 126.749 37.5779 126.749 37.9333V42.1713C126.663 42.1973 126.537 42.2276 126.372 42.2623C126.208 42.2883 126.017 42.3186 125.8 42.3533C125.584 42.3879 125.341 42.4139 125.072 42.4313C124.812 42.4573 124.544 42.4703 124.266 42.4703C123.911 42.4703 123.582 42.4313 123.278 42.3533C122.984 42.2753 122.724 42.1539 122.498 41.9893C122.282 41.8159 122.108 41.5993 121.978 41.3393C121.857 41.0706 121.796 40.7456 121.796 40.3643C121.796 40.0003 121.866 39.6883 122.004 39.4283C122.143 39.1683 122.338 38.9559 122.589 38.7913C122.841 38.6179 123.14 38.4923 123.486 38.4143C123.833 38.3363 124.21 38.2973 124.617 38.2973C124.739 38.2973 124.864 38.3059 124.994 38.3233C125.133 38.3319 125.263 38.3493 125.384 38.3753C125.514 38.3926 125.623 38.4143 125.709 38.4403C125.805 38.4576 125.87 38.4749 125.904 38.4923V38.0763C125.904 37.8423 125.887 37.6169 125.852 37.4003C125.818 37.1749 125.74 36.9756 125.618 36.8023C125.506 36.6203 125.341 36.4773 125.124 36.3733C124.916 36.2606 124.639 36.2043 124.292 36.2043C123.798 36.2043 123.43 36.2389 123.187 36.3083C122.945 36.3776 122.767 36.4339 122.654 36.4773L122.537 35.7363C122.685 35.6669 122.91 35.6019 123.213 35.5413C123.525 35.4806 123.898 35.4503 124.331 35.4503ZM128.905 35.8403C129.156 35.7709 129.481 35.6929 129.88 35.6063C130.287 35.5196 130.811 35.4763 131.453 35.4763C132.302 35.4763 132.917 35.7233 133.299 36.2173C133.342 36.1826 133.424 36.1263 133.546 36.0483C133.676 35.9616 133.836 35.8749 134.027 35.7883C134.217 35.7016 134.438 35.6279 134.69 35.5673C134.95 35.5066 135.236 35.4763 135.548 35.4763C136.059 35.4763 136.471 35.5543 136.783 35.7103C137.103 35.8576 137.35 36.0699 137.524 36.3473C137.697 36.6159 137.814 36.9409 137.875 37.3223C137.935 37.7036 137.966 38.1196 137.966 38.5703V42.3273H137.121V38.8433C137.121 38.4013 137.099 38.0199 137.056 37.6993C137.021 37.3699 136.943 37.1013 136.822 36.8933C136.709 36.6766 136.544 36.5163 136.328 36.4123C136.111 36.2996 135.829 36.2433 135.483 36.2433C135.223 36.2433 134.984 36.2693 134.768 36.3213C134.56 36.3646 134.378 36.4209 134.222 36.4903C134.066 36.5596 133.936 36.6289 133.832 36.6983C133.736 36.7676 133.667 36.8196 133.624 36.8543C133.702 37.0796 133.758 37.3353 133.793 37.6213C133.836 37.8986 133.858 38.1933 133.858 38.5053V42.3273H133.013V38.8433C133.013 38.4013 132.991 38.0199 132.948 37.6993C132.913 37.3699 132.835 37.1013 132.714 36.8933C132.592 36.6766 132.419 36.5163 132.194 36.4123C131.977 36.2996 131.687 36.2433 131.323 36.2433C130.915 36.2433 130.569 36.2649 130.283 36.3083C130.005 36.3516 129.828 36.3906 129.75 36.4253V42.3273H128.905V35.8403ZM140.972 42.3273H140.127V35.6063H140.972V42.3273ZM141.167 33.5783C141.167 33.7776 141.107 33.9379 140.985 34.0593C140.864 34.1719 140.717 34.2283 140.543 34.2283C140.37 34.2283 140.223 34.1719 140.101 34.0593C139.98 33.9379 139.919 33.7776 139.919 33.5783C139.919 33.3789 139.98 33.2229 140.101 33.1103C140.223 32.9889 140.37 32.9283 140.543 32.9283C140.717 32.9283 140.864 32.9889 140.985 33.1103C141.107 33.2229 141.167 33.3789 141.167 33.5783ZM147.593 41.5473C147.541 41.5906 147.463 41.6426 147.359 41.7033C147.255 41.7553 147.125 41.8116 146.969 41.8723C146.822 41.9329 146.649 41.9849 146.449 42.0283C146.259 42.0629 146.042 42.0803 145.799 42.0803C145.409 42.0803 145.032 42.0196 144.668 41.8983C144.304 41.7769 143.984 41.5863 143.706 41.3263C143.438 41.0663 143.221 40.7326 143.056 40.3253C142.892 39.9093 142.809 39.4066 142.809 38.8173C142.809 38.3406 142.883 37.8986 143.03 37.4913C143.178 37.0839 143.386 36.7329 143.654 36.4383C143.932 36.1349 144.265 35.9009 144.655 35.7363C145.054 35.5629 145.5 35.4763 145.994 35.4763C146.618 35.4763 147.117 35.5196 147.489 35.6063C147.871 35.6843 148.183 35.7623 148.425 35.8403V41.9763C148.425 42.9816 148.165 43.6966 147.645 44.1213C147.125 44.5546 146.341 44.7713 145.292 44.7713C144.859 44.7713 144.465 44.7366 144.109 44.6673C143.763 44.6066 143.464 44.5329 143.212 44.4463L143.381 43.6793C143.589 43.7746 143.871 43.8569 144.226 43.9263C144.59 43.9956 144.954 44.0303 145.318 44.0303C146.116 44.0303 146.692 43.8743 147.047 43.5623C147.411 43.2589 147.593 42.7346 147.593 41.9893V41.5473ZM147.58 36.4253C147.433 36.3819 147.242 36.3429 147.008 36.3083C146.774 36.2649 146.441 36.2433 146.007 36.2433C145.643 36.2433 145.318 36.3083 145.032 36.4383C144.755 36.5596 144.517 36.7373 144.317 36.9713C144.118 37.1966 143.966 37.4696 143.862 37.7903C143.758 38.1023 143.706 38.4489 143.706 38.8303C143.706 39.2723 143.767 39.6536 143.888 39.9743C144.01 40.2863 144.166 40.5419 144.356 40.7413C144.556 40.9406 144.781 41.0879 145.032 41.1833C145.284 41.2699 145.539 41.3133 145.799 41.3133C146.181 41.3133 146.527 41.2569 146.839 41.1443C147.16 41.0316 147.407 40.9016 147.58 40.7543V36.4253ZM156.397 38.9733C156.397 39.5019 156.319 39.9829 156.163 40.4163C156.016 40.8496 155.804 41.2179 155.526 41.5213C155.258 41.8246 154.937 42.0629 154.564 42.2363C154.192 42.4009 153.78 42.4833 153.329 42.4833C152.879 42.4833 152.467 42.4009 152.094 42.2363C151.722 42.0629 151.397 41.8246 151.119 41.5213C150.851 41.2179 150.638 40.8496 150.482 40.4163C150.335 39.9829 150.261 39.5019 150.261 38.9733C150.261 38.4446 150.335 37.9636 150.482 37.5303C150.638 37.0969 150.851 36.7286 151.119 36.4253C151.397 36.1133 151.722 35.8749 152.094 35.7103C152.467 35.5369 152.879 35.4503 153.329 35.4503C153.78 35.4503 154.192 35.5369 154.564 35.7103C154.937 35.8749 155.258 36.1133 155.526 36.4253C155.804 36.7286 156.016 37.0969 156.163 37.5303C156.319 37.9636 156.397 38.4446 156.397 38.9733ZM155.5 38.9733C155.5 38.1326 155.305 37.4653 154.915 36.9713C154.525 36.4686 153.997 36.2173 153.329 36.2173C152.662 36.2173 152.133 36.4686 151.743 36.9713C151.353 37.4653 151.158 38.1326 151.158 38.9733C151.158 39.8139 151.353 40.4813 151.743 40.9753C152.133 41.4693 152.662 41.7163 153.329 41.7163C153.997 41.7163 154.525 41.4693 154.915 40.9753C155.305 40.4813 155.5 39.8139 155.5 38.9733ZM159.349 35.8273C159.349 36.1999 159.34 36.5509 159.323 36.8803C159.314 37.2009 159.297 37.5129 159.271 37.8163C159.245 38.1196 159.214 38.4143 159.18 38.7003C159.154 38.9863 159.123 39.2723 159.089 39.5583H158.699C158.621 38.9776 158.556 38.3969 158.504 37.8163C158.46 37.2356 158.439 36.5726 158.439 35.8273V33.3183H159.349V35.8273ZM159.609 41.7683C159.609 41.9676 159.544 42.1366 159.414 42.2753C159.292 42.4139 159.119 42.4833 158.894 42.4833C158.668 42.4833 158.491 42.4139 158.361 42.2753C158.239 42.1366 158.179 41.9676 158.179 41.7683C158.179 41.5689 158.239 41.3999 158.361 41.2613C158.491 41.1226 158.668 41.0533 158.894 41.0533C159.119 41.0533 159.292 41.1226 159.414 41.2613C159.544 41.3999 159.609 41.5689 159.609 41.7683Z" fill="#FF6D00"/>
</svg>
