<svg width="230" height="55" viewBox="0 0 230 55" fill="none" xmlns="http://www.w3.org/2000/svg">
<path d="M25.1308 19.2694C25.3901 19.1841 25.7191 18.7681 25.7361 18.5043C26.1164 12.1411 20.7394 3.6582 18.803 0.826027C17.2441 1.43322 15.7272 2.41465 14.3269 3.91031C14.3269 3.91031 11.5302 5.74424 10.5381 14.655C15.7688 21.2746 22.2684 20.1921 25.1308 19.2694Z" fill="white"/>
<path d="M45.8752 7.97473L37.306 5.93081C37.306 5.93081 37.0617 3.91051 34.6317 3.08034C32.8605 2.47379 26.7578 -0.953667 20.7533 0.256898C23.0235 3.6335 28.0735 11.9566 27.6742 18.6139C27.6148 19.6606 26.7633 20.7421 25.7396 21.0727C24.7555 21.3927 22.9893 21.8356 20.8428 21.8356C17.7329 21.8356 13.8268 20.901 10.3078 17.3078C10.2387 18.4496 10.1993 19.6847 10.1924 21.021C10.153 27.9135 1.19333 34.4487 1.19333 34.4487L0 36.8653C2.43564 42.0186 6.2538 46.4233 10.994 49.6199C11.2089 46.328 12.0537 43.7492 13.0321 41.8112C14.8851 38.1304 17.4838 36.0875 18.81 35.2231C19.0952 27.6261 21.6186 25.4058 23.7237 24.8982C24.3703 24.7416 25.052 24.8765 25.5882 25.2699C26.1985 25.7149 26.5911 26.4496 26.6309 27.2383C26.7391 29.2803 27.9742 30.7138 28.5599 31.2831C29.5096 31.3695 30.4162 31.5165 31.2697 31.7186L31.348 31.0023L32.0003 24.8129C32.1109 23.7683 33.0717 22.8877 34.1353 22.7387C38.174 22.1639 47.1724 19.8261 47.7572 10.3265C47.8245 9.2787 46.919 8.22493 45.8752 7.97473ZM32.5244 10.1814C31.9198 10.1814 31.4288 9.70378 31.4288 9.11232C31.4288 8.52087 31.9198 8.04324 32.5244 8.04324C33.1303 8.04324 33.6189 8.52087 33.6189 9.11232C33.6167 9.70271 33.1292 10.1814 32.5244 10.1814Z" fill="white"/>
<path d="M37.3082 38.4663C36.9842 35.7731 33.0938 33.5538 28.0666 33.2385C28.0666 33.2385 25.3973 31.2333 25.2182 27.7721C25.1888 27.248 24.7879 26.7272 24.2674 26.8528C22.924 27.1757 20.6432 28.8609 20.5295 36.5575C20.5295 36.5575 13.2233 40.1594 12.6953 50.5437C17.3787 53.2933 22.8363 54.9062 28.6616 55L28.5963 53.5124C28.5721 52.9884 28.9612 52.4138 29.463 52.2302L35.6864 49.9495C35.6864 49.9495 38.6049 50.1094 39.8189 47.9683C40.4335 46.889 41.004 46.1348 41.4242 45.6489C41.7679 45.2491 41.7625 44.6776 41.3778 44.3123C40.1063 43.1131 37.5503 40.479 37.3082 38.4663ZM33.6165 41.0732C33.013 41.0732 32.5231 40.5968 32.5231 40.0049C32.5231 39.4118 33.013 38.9344 33.6165 38.9344C34.2222 38.9344 34.7121 39.4118 34.7121 40.0049C34.7123 40.5966 34.2224 41.0732 33.6165 41.0732Z" fill="white"/>
<path d="M69.7299 28.3649C69.4126 27.5249 69.1139 26.7036 68.8339 25.9009C68.5539 25.0796 68.2646 24.2489 67.9659 23.4089H59.1739L57.4099 28.3649H54.5819C55.3286 26.3116 56.0286 24.4169 56.6819 22.6809C57.3352 20.9262 57.9699 19.2649 58.5859 17.6969C59.2206 16.1289 59.8459 14.6356 60.4619 13.2169C61.0779 11.7796 61.7219 10.3609 62.3939 8.96091H64.8859C65.5579 10.3609 66.2019 11.7796 66.8179 13.2169C67.4339 14.6356 68.0499 16.1289 68.6659 17.6969C69.3006 19.2649 69.9446 20.9262 70.5979 22.6809C71.2512 24.4169 71.9512 26.3116 72.6979 28.3649H69.7299ZM67.1819 21.1689C66.5846 19.5449 65.9872 17.9769 65.3899 16.4649C64.8112 14.9342 64.2046 13.4689 63.5699 12.0689C62.9166 13.4689 62.2912 14.9342 61.6939 16.4649C61.1152 17.9769 60.5366 19.5449 59.9579 21.1689H67.1819ZM91.2643 18.6489C91.2643 20.3289 91.003 21.7942 90.4803 23.0449C89.9577 24.2769 89.2203 25.3036 88.2683 26.1249C87.3163 26.9276 86.1777 27.5342 84.8523 27.9449C83.527 28.3369 82.071 28.5329 80.4843 28.5329C79.7003 28.5329 78.8323 28.4956 77.8803 28.4209C76.947 28.3649 76.0976 28.2436 75.3323 28.0569V9.24091C76.0976 9.05424 76.947 8.93291 77.8803 8.87691C78.8323 8.80224 79.7003 8.76491 80.4843 8.76491C82.071 8.76491 83.527 8.97024 84.8523 9.38091C86.1777 9.77291 87.3163 10.3796 88.2683 11.2009C89.2203 12.0036 89.9577 13.0302 90.4803 14.2809C91.003 15.5129 91.2643 16.9689 91.2643 18.6489ZM80.7083 26.1529C83.2843 26.1529 85.207 25.4996 86.4763 24.1929C87.7457 22.8676 88.3803 21.0196 88.3803 18.6489C88.3803 16.2782 87.7457 14.4396 86.4763 13.1329C85.207 11.8076 83.2843 11.1449 80.7083 11.1449C79.943 11.1449 79.3457 11.1542 78.9163 11.1729C78.5056 11.1916 78.2163 11.2102 78.0483 11.2289V26.0689C78.2163 26.0876 78.5056 26.1062 78.9163 26.1249C79.3457 26.1436 79.943 26.1529 80.7083 26.1529ZM94.5093 18.6489C94.5093 16.9876 94.7519 15.5222 95.2373 14.2529C95.7413 12.9836 96.4133 11.9289 97.2533 11.0889C98.1119 10.2302 99.1013 9.58624 100.221 9.15691C101.36 8.72758 102.564 8.51291 103.833 8.51291C105.084 8.51291 106.26 8.72758 107.361 9.15691C108.481 9.58624 109.461 10.2302 110.301 11.0889C111.141 11.9289 111.804 12.9836 112.289 14.2529C112.793 15.5222 113.045 16.9876 113.045 18.6489C113.045 20.3102 112.793 21.7756 112.289 23.0449C111.804 24.3142 111.141 25.3782 110.301 26.2369C109.461 27.0769 108.481 27.7116 107.361 28.1409C106.26 28.5702 105.084 28.7849 103.833 28.7849C102.564 28.7849 101.36 28.5702 100.221 28.1409C99.1013 27.7116 98.1119 27.0769 97.2533 26.2369C96.4133 25.3782 95.7413 24.3142 95.2373 23.0449C94.7519 21.7756 94.5093 20.3102 94.5093 18.6489ZM97.3653 18.6489C97.3653 19.8249 97.5146 20.8982 97.8133 21.8689C98.1119 22.8209 98.5319 23.6329 99.0733 24.3049C99.6333 24.9769 100.305 25.4996 101.089 25.8729C101.892 26.2276 102.788 26.4049 103.777 26.4049C104.767 26.4049 105.653 26.2276 106.437 25.8729C107.221 25.4996 107.884 24.9769 108.425 24.3049C108.985 23.6329 109.415 22.8209 109.713 21.8689C110.012 20.8982 110.161 19.8249 110.161 18.6489C110.161 17.4729 110.012 16.4089 109.713 15.4569C109.415 14.4862 108.985 13.6649 108.425 12.9929C107.884 12.3209 107.221 11.8076 106.437 11.4529C105.653 11.0796 104.767 10.8929 103.777 10.8929C102.788 10.8929 101.892 11.0796 101.089 11.4529C100.305 11.8076 99.6333 12.3209 99.0733 12.9929C98.5319 13.6649 98.1119 14.4862 97.8133 15.4569C97.5146 16.4089 97.3653 17.4729 97.3653 18.6489ZM122.238 8.76491C124.964 8.76491 127.054 9.28758 128.51 10.3329C129.985 11.3596 130.722 12.8996 130.722 14.9529C130.722 16.0729 130.517 17.0342 130.106 17.8369C129.714 18.6209 129.136 19.2649 128.37 19.7689C127.624 20.2542 126.709 20.6089 125.626 20.8329C124.544 21.0569 123.321 21.1689 121.958 21.1689H119.802V28.3649H117.086V9.24091C117.852 9.05424 118.701 8.93291 119.634 8.87691C120.586 8.80224 121.454 8.76491 122.238 8.76491ZM122.462 11.1449C121.305 11.1449 120.418 11.1729 119.802 11.2289V18.8449H121.846C122.78 18.8449 123.62 18.7889 124.366 18.6769C125.113 18.5462 125.738 18.3409 126.242 18.0609C126.765 17.7622 127.166 17.3609 127.446 16.8569C127.726 16.3529 127.866 15.7089 127.866 14.9249C127.866 14.1782 127.717 13.5622 127.418 13.0769C127.138 12.5916 126.746 12.2089 126.242 11.9289C125.757 11.6302 125.188 11.4249 124.534 11.3129C123.881 11.2009 123.19 11.1449 122.462 11.1449ZM147.085 8.96091V11.3129H140.981V28.3649H138.265V11.3129H132.161V8.96091H147.085ZM161.586 8.76491C164.311 8.76491 166.402 9.28758 167.858 10.3329C169.333 11.3596 170.07 12.8996 170.07 14.9529C170.07 16.0729 169.865 17.0342 169.454 17.8369C169.062 18.6209 168.483 19.2649 167.718 19.7689C166.971 20.2542 166.057 20.6089 164.974 20.8329C163.891 21.0569 162.669 21.1689 161.306 21.1689H159.15V28.3649H156.434V9.24091C157.199 9.05424 158.049 8.93291 158.982 8.87691C159.934 8.80224 160.802 8.76491 161.586 8.76491ZM161.81 11.1449C160.653 11.1449 159.766 11.1729 159.15 11.2289V18.8449H161.194C162.127 18.8449 162.967 18.7889 163.714 18.6769C164.461 18.5462 165.086 18.3409 165.59 18.0609C166.113 17.7622 166.514 17.3609 166.794 16.8569C167.074 16.3529 167.214 15.7089 167.214 14.9249C167.214 14.1782 167.065 13.5622 166.766 13.0769C166.486 12.5916 166.094 12.2089 165.59 11.9289C165.105 11.6302 164.535 11.4249 163.882 11.3129C163.229 11.2009 162.538 11.1449 161.81 11.1449ZM173.469 28.3649V8.96091H185.313V11.2849H176.185V17.0529H184.305V19.3209H176.185V26.0409H186.013V28.3649H173.469ZM202.429 8.96091V11.3129H196.325V28.3649H193.609V11.3129H187.505V8.96091H202.429ZM209.805 26.4329C212.642 26.4329 214.061 25.4622 214.061 23.5209C214.061 22.9236 213.93 22.4196 213.669 22.0089C213.426 21.5796 213.09 21.2156 212.661 20.9169C212.232 20.5996 211.737 20.3289 211.177 20.1049C210.636 19.8809 210.057 19.6569 209.441 19.4329C208.732 19.1902 208.06 18.9196 207.425 18.6209C206.79 18.3036 206.24 17.9396 205.773 17.5289C205.306 17.0996 204.933 16.5956 204.653 16.0169C204.392 15.4382 204.261 14.7382 204.261 13.9169C204.261 12.2182 204.84 10.8929 205.997 9.94091C207.154 8.98891 208.75 8.51291 210.785 8.51291C211.961 8.51291 213.025 8.64358 213.977 8.90491C214.948 9.14758 215.657 9.41824 216.105 9.71691L215.237 11.9289C214.845 11.6862 214.257 11.4529 213.473 11.2289C212.708 10.9862 211.812 10.8649 210.785 10.8649C210.262 10.8649 209.777 10.9209 209.329 11.0329C208.881 11.1449 208.489 11.3129 208.153 11.5369C207.817 11.7609 207.546 12.0502 207.341 12.4049C207.154 12.7409 207.061 13.1422 207.061 13.6089C207.061 14.1316 207.164 14.5702 207.369 14.9249C207.574 15.2796 207.864 15.5969 208.237 15.8769C208.61 16.1382 209.04 16.3809 209.525 16.6049C210.029 16.8289 210.58 17.0529 211.177 17.2769C212.017 17.6129 212.782 17.9489 213.473 18.2849C214.182 18.6209 214.789 19.0222 215.293 19.4889C215.816 19.9556 216.217 20.5156 216.497 21.1689C216.777 21.8036 216.917 22.5782 216.917 23.4929C216.917 25.1916 216.292 26.4982 215.041 27.4129C213.809 28.3276 212.064 28.7849 209.805 28.7849C209.04 28.7849 208.33 28.7289 207.677 28.6169C207.042 28.5236 206.473 28.4116 205.969 28.2809C205.465 28.1316 205.026 27.9822 204.653 27.8329C204.298 27.6649 204.018 27.5249 203.813 27.4129L204.625 25.1729C205.054 25.4156 205.708 25.6862 206.585 25.9849C207.462 26.2836 208.536 26.4329 209.805 26.4329Z" fill="white"/>
<path d="M82.4318 49.2583C82.2038 48.6463 81.9878 48.0583 81.7838 47.4943C81.5798 46.9303 81.3818 46.3783 81.1898 45.8383H75.1238C74.9198 46.3783 74.7158 46.9303 74.5118 47.4943C74.3078 48.0583 74.0978 48.6463 73.8818 49.2583H72.6038C73.0838 47.9623 73.5338 46.7563 73.9538 45.6403C74.3738 44.5123 74.7818 43.4503 75.1778 42.4543C75.5858 41.4463 75.9878 40.4803 76.3838 39.5563C76.7798 38.6323 77.1998 37.7083 77.6438 36.7843H78.7238C79.1678 37.7083 79.5878 38.6323 79.9838 39.5563C80.3798 40.4803 80.7758 41.4463 81.1718 42.4543C81.5798 43.4503 81.9938 44.5123 82.4138 45.6403C82.8338 46.7563 83.2898 47.9623 83.7818 49.2583H82.4318ZM78.1478 38.1883C77.6918 39.2203 77.2478 40.2703 76.8158 41.3383C76.3958 42.4063 75.9578 43.5583 75.5018 44.7943H80.8118C80.3558 43.5583 79.9118 42.4063 79.4798 41.3383C79.0478 40.2703 78.6038 39.2203 78.1478 38.1883ZM92.9011 48.9703C92.5531 49.0903 92.1091 49.2043 91.5691 49.3123C91.0291 49.4203 90.3451 49.4743 89.5171 49.4743C88.8331 49.4743 88.2091 49.3663 87.6451 49.1503C87.0931 48.9223 86.6131 48.5983 86.2051 48.1783C85.8091 47.7583 85.4971 47.2483 85.2691 46.6483C85.0531 46.0483 84.9451 45.3703 84.9451 44.6143C84.9451 43.9063 85.0351 43.2583 85.2151 42.6703C85.4071 42.0703 85.6831 41.5543 86.0431 41.1223C86.4031 40.6903 86.8411 40.3543 87.3571 40.1143C87.8851 39.8743 88.4851 39.7543 89.1571 39.7543C89.7691 39.7543 90.2971 39.8443 90.7411 40.0243C91.1971 40.1923 91.5271 40.3543 91.7311 40.5103V35.5063L92.9011 35.2903V48.9703ZM91.7311 41.6443C91.6231 41.5603 91.4851 41.4703 91.3171 41.3743C91.1611 41.2783 90.9751 41.1883 90.7591 41.1043C90.5431 41.0203 90.3091 40.9543 90.0571 40.9063C89.8051 40.8463 89.5411 40.8163 89.2651 40.8163C88.6891 40.8163 88.2031 40.9183 87.8071 41.1223C87.4231 41.3263 87.1111 41.6023 86.8711 41.9503C86.6311 42.2863 86.4571 42.6883 86.3491 43.1563C86.2411 43.6123 86.1871 44.0983 86.1871 44.6143C86.1871 45.8383 86.4931 46.7803 87.1051 47.4403C87.7171 48.0883 88.5271 48.4123 89.5351 48.4123C90.1111 48.4123 90.5731 48.3883 90.9211 48.3403C91.2811 48.2803 91.5511 48.2203 91.7311 48.1603V41.6443ZM103.935 44.6143C103.935 45.3463 103.827 46.0123 103.611 46.6123C103.407 47.2123 103.113 47.7223 102.729 48.1423C102.357 48.5623 101.913 48.8923 101.397 49.1323C100.881 49.3603 100.311 49.4743 99.6872 49.4743C99.0632 49.4743 98.4932 49.3603 97.9772 49.1323C97.4612 48.8923 97.0112 48.5623 96.6272 48.1423C96.2552 47.7223 95.9612 47.2123 95.7452 46.6123C95.5412 46.0123 95.4392 45.3463 95.4392 44.6143C95.4392 43.8823 95.5412 43.2163 95.7452 42.6163C95.9612 42.0163 96.2552 41.5063 96.6272 41.0863C97.0112 40.6543 97.4612 40.3243 97.9772 40.0963C98.4932 39.8563 99.0632 39.7363 99.6872 39.7363C100.311 39.7363 100.881 39.8563 101.397 40.0963C101.913 40.3243 102.357 40.6543 102.729 41.0863C103.113 41.5063 103.407 42.0163 103.611 42.6163C103.827 43.2163 103.935 43.8823 103.935 44.6143ZM102.693 44.6143C102.693 43.4503 102.423 42.5263 101.883 41.8423C101.343 41.1463 100.611 40.7983 99.6872 40.7983C98.7632 40.7983 98.0312 41.1463 97.4912 41.8423C96.9512 42.5263 96.6812 43.4503 96.6812 44.6143C96.6812 45.7783 96.9512 46.7023 97.4912 47.3863C98.0312 48.0703 98.7632 48.4123 99.6872 48.4123C100.611 48.4123 101.343 48.0703 101.883 47.3863C102.423 46.7023 102.693 45.7783 102.693 44.6143ZM107.572 39.9523H111.28V40.9423H107.572V45.8923C107.572 46.4203 107.614 46.8523 107.698 47.1883C107.794 47.5123 107.926 47.7643 108.094 47.9443C108.262 48.1243 108.466 48.2443 108.706 48.3043C108.946 48.3643 109.21 48.3943 109.498 48.3943C109.99 48.3943 110.386 48.3403 110.686 48.2323C110.986 48.1123 111.22 48.0043 111.388 47.9083L111.676 48.8803C111.508 48.9883 111.214 49.1143 110.794 49.2583C110.374 49.3903 109.918 49.4563 109.426 49.4563C108.85 49.4563 108.364 49.3843 107.968 49.2403C107.584 49.0843 107.272 48.8563 107.032 48.5563C106.804 48.2443 106.642 47.8603 106.546 47.4043C106.45 46.9483 106.402 46.4083 106.402 45.7843V37.2163L107.572 37.0003V39.9523ZM112.877 44.5963C112.877 43.7803 112.991 43.0723 113.219 42.4723C113.459 41.8603 113.765 41.3503 114.137 40.9423C114.521 40.5343 114.953 40.2343 115.433 40.0423C115.925 39.8383 116.429 39.7363 116.945 39.7363C118.085 39.7363 118.991 40.1083 119.663 40.8523C120.347 41.5963 120.689 42.7423 120.689 44.2903C120.689 44.3863 120.683 44.4823 120.671 44.5783C120.671 44.6743 120.665 44.7643 120.653 44.8483H114.119C114.155 45.9883 114.437 46.8643 114.965 47.4763C115.493 48.0883 116.333 48.3943 117.485 48.3943C118.121 48.3943 118.625 48.3343 118.997 48.2143C119.369 48.0943 119.639 47.9923 119.807 47.9083L120.023 48.9163C119.855 49.0123 119.537 49.1263 119.069 49.2583C118.613 49.3903 118.073 49.4563 117.449 49.4563C116.633 49.4563 115.937 49.3363 115.361 49.0963C114.785 48.8563 114.311 48.5203 113.939 48.0883C113.567 47.6563 113.297 47.1463 113.129 46.5583C112.961 45.9583 112.877 45.3043 112.877 44.5963ZM119.483 43.8583C119.459 42.8863 119.231 42.1303 118.799 41.5903C118.367 41.0503 117.755 40.7803 116.963 40.7803C116.543 40.7803 116.165 40.8643 115.829 41.0323C115.505 41.2003 115.217 41.4283 114.965 41.7163C114.725 41.9923 114.533 42.3163 114.389 42.6883C114.257 43.0603 114.179 43.4503 114.155 43.8583H119.483ZM134.538 48.9343C134.19 49.0303 133.722 49.1383 133.134 49.2583C132.546 49.3783 131.826 49.4383 130.974 49.4383C130.278 49.4383 129.696 49.3363 129.228 49.1323C128.76 48.9283 128.382 48.6403 128.094 48.2683C127.806 47.8963 127.596 47.4463 127.464 46.9183C127.344 46.3903 127.284 45.8083 127.284 45.1723V39.9523H128.454V44.7943C128.454 45.4543 128.502 46.0123 128.598 46.4683C128.694 46.9243 128.85 47.2963 129.066 47.5843C129.282 47.8603 129.558 48.0643 129.894 48.1963C130.242 48.3163 130.662 48.3763 131.154 48.3763C131.706 48.3763 132.186 48.3463 132.594 48.2863C133.002 48.2263 133.26 48.1723 133.368 48.1243V39.9523H134.538V48.9343ZM137.64 40.2763C137.988 40.1803 138.438 40.0723 138.99 39.9523C139.554 39.8323 140.28 39.7723 141.168 39.7723C142.344 39.7723 143.196 40.1143 143.724 40.7983C143.784 40.7503 143.898 40.6723 144.066 40.5643C144.246 40.4443 144.468 40.3243 144.732 40.2043C144.996 40.0843 145.302 39.9823 145.65 39.8983C146.01 39.8143 146.406 39.7723 146.838 39.7723C147.546 39.7723 148.116 39.8803 148.548 40.0963C148.992 40.3003 149.334 40.5943 149.574 40.9783C149.814 41.3503 149.976 41.8003 150.06 42.3283C150.144 42.8563 150.186 43.4323 150.186 44.0563V49.2583H149.016V44.4343C149.016 43.8223 148.986 43.2943 148.926 42.8503C148.878 42.3943 148.77 42.0223 148.602 41.7343C148.446 41.4343 148.218 41.2123 147.918 41.0683C147.618 40.9123 147.228 40.8343 146.748 40.8343C146.388 40.8343 146.058 40.8703 145.758 40.9423C145.47 41.0023 145.218 41.0803 145.002 41.1763C144.786 41.2723 144.606 41.3683 144.462 41.4643C144.33 41.5603 144.234 41.6323 144.174 41.6803C144.282 41.9923 144.36 42.3463 144.408 42.7423C144.468 43.1263 144.498 43.5343 144.498 43.9663V49.2583H143.328V44.4343C143.328 43.8223 143.298 43.2943 143.238 42.8503C143.19 42.3943 143.082 42.0223 142.914 41.7343C142.746 41.4343 142.506 41.2123 142.194 41.0683C141.894 40.9123 141.492 40.8343 140.988 40.8343C140.424 40.8343 139.944 40.8643 139.548 40.9243C139.164 40.9843 138.918 41.0383 138.81 41.0863V49.2583H137.64V40.2763ZM160.209 48.4123C160.665 48.4123 161.061 48.4003 161.397 48.3763C161.745 48.3403 162.039 48.2983 162.279 48.2503V44.9743C162.147 44.9143 161.937 44.8543 161.649 44.7943C161.361 44.7223 160.965 44.6863 160.461 44.6863C160.173 44.6863 159.873 44.7103 159.561 44.7583C159.249 44.7943 158.961 44.8843 158.697 45.0283C158.433 45.1603 158.217 45.3463 158.049 45.5863C157.881 45.8263 157.797 46.1443 157.797 46.5403C157.797 46.8883 157.851 47.1823 157.959 47.4223C158.079 47.6623 158.241 47.8543 158.445 47.9983C158.661 48.1423 158.913 48.2503 159.201 48.3223C159.501 48.3823 159.837 48.4123 160.209 48.4123ZM160.101 39.7363C160.713 39.7363 161.229 39.8263 161.649 40.0063C162.081 40.1743 162.429 40.4143 162.693 40.7263C162.957 41.0263 163.149 41.3863 163.269 41.8063C163.389 42.2263 163.449 42.6823 163.449 43.1743V49.0423C163.329 49.0783 163.155 49.1203 162.927 49.1683C162.699 49.2043 162.435 49.2463 162.135 49.2943C161.835 49.3423 161.499 49.3783 161.127 49.4023C160.767 49.4383 160.395 49.4563 160.011 49.4563C159.519 49.4563 159.063 49.4023 158.643 49.2943C158.235 49.1863 157.875 49.0183 157.563 48.7903C157.263 48.5503 157.023 48.2503 156.843 47.8903C156.675 47.5183 156.591 47.0683 156.591 46.5403C156.591 46.0363 156.687 45.6043 156.879 45.2443C157.071 44.8843 157.341 44.5903 157.689 44.3623C158.037 44.1223 158.451 43.9483 158.931 43.8403C159.411 43.7323 159.933 43.6783 160.497 43.6783C160.665 43.6783 160.839 43.6903 161.019 43.7143C161.211 43.7263 161.391 43.7503 161.559 43.7863C161.739 43.8103 161.889 43.8403 162.009 43.8763C162.141 43.9003 162.231 43.9243 162.279 43.9483V43.3723C162.279 43.0483 162.255 42.7363 162.207 42.4363C162.159 42.1243 162.051 41.8483 161.883 41.6083C161.727 41.3563 161.499 41.1583 161.199 41.0143C160.911 40.8583 160.527 40.7803 160.047 40.7803C159.363 40.7803 158.853 40.8283 158.517 40.9243C158.181 41.0203 157.935 41.0983 157.779 41.1583L157.617 40.1323C157.821 40.0363 158.133 39.9463 158.553 39.8623C158.985 39.7783 159.501 39.7363 160.101 39.7363ZM166.433 40.2763C166.781 40.1803 167.231 40.0723 167.783 39.9523C168.347 39.8323 169.073 39.7723 169.961 39.7723C171.137 39.7723 171.989 40.1143 172.517 40.7983C172.577 40.7503 172.691 40.6723 172.859 40.5643C173.039 40.4443 173.261 40.3243 173.525 40.2043C173.789 40.0843 174.095 39.9823 174.443 39.8983C174.803 39.8143 175.199 39.7723 175.631 39.7723C176.339 39.7723 176.909 39.8803 177.341 40.0963C177.785 40.3003 178.127 40.5943 178.367 40.9783C178.607 41.3503 178.769 41.8003 178.853 42.3283C178.937 42.8563 178.979 43.4323 178.979 44.0563V49.2583H177.809V44.4343C177.809 43.8223 177.779 43.2943 177.719 42.8503C177.671 42.3943 177.563 42.0223 177.395 41.7343C177.239 41.4343 177.011 41.2123 176.711 41.0683C176.411 40.9123 176.021 40.8343 175.541 40.8343C175.181 40.8343 174.851 40.8703 174.551 40.9423C174.263 41.0023 174.011 41.0803 173.795 41.1763C173.579 41.2723 173.399 41.3683 173.255 41.4643C173.123 41.5603 173.027 41.6323 172.967 41.6803C173.075 41.9923 173.153 42.3463 173.201 42.7423C173.261 43.1263 173.291 43.5343 173.291 43.9663V49.2583H172.121V44.4343C172.121 43.8223 172.091 43.2943 172.031 42.8503C171.983 42.3943 171.875 42.0223 171.707 41.7343C171.539 41.4343 171.299 41.2123 170.987 41.0683C170.687 40.9123 170.285 40.8343 169.781 40.8343C169.217 40.8343 168.737 40.8643 168.341 40.9243C167.957 40.9843 167.711 41.0383 167.603 41.0863V49.2583H166.433V40.2763ZM183.142 49.2583H181.972V39.9523H183.142V49.2583ZM183.412 37.1443C183.412 37.4203 183.328 37.6423 183.16 37.8103C182.992 37.9663 182.788 38.0443 182.548 38.0443C182.308 38.0443 182.104 37.9663 181.936 37.8103C181.768 37.6423 181.684 37.4203 181.684 37.1443C181.684 36.8683 181.768 36.6523 181.936 36.4963C182.104 36.3283 182.308 36.2443 182.548 36.2443C182.788 36.2443 182.992 36.3283 183.16 36.4963C183.328 36.6523 183.412 36.8683 183.412 37.1443ZM192.309 48.1783C192.237 48.2383 192.129 48.3103 191.985 48.3943C191.841 48.4663 191.661 48.5443 191.445 48.6283C191.241 48.7123 191.001 48.7843 190.725 48.8443C190.461 48.8923 190.161 48.9163 189.825 48.9163C189.285 48.9163 188.763 48.8323 188.259 48.6643C187.755 48.4963 187.311 48.2323 186.927 47.8723C186.555 47.5123 186.255 47.0503 186.027 46.4863C185.799 45.9103 185.685 45.2143 185.685 44.3983C185.685 43.7383 185.787 43.1263 185.991 42.5623C186.195 41.9983 186.483 41.5123 186.855 41.1043C187.239 40.6843 187.701 40.3603 188.241 40.1323C188.793 39.8923 189.411 39.7723 190.095 39.7723C190.959 39.7723 191.649 39.8323 192.165 39.9523C192.693 40.0603 193.125 40.1683 193.461 40.2763V48.7723C193.461 50.1643 193.101 51.1543 192.381 51.7423C191.661 52.3423 190.575 52.6423 189.123 52.6423C188.523 52.6423 187.977 52.5943 187.485 52.4983C187.005 52.4143 186.591 52.3123 186.243 52.1923L186.477 51.1303C186.765 51.2623 187.155 51.3763 187.647 51.4723C188.151 51.5683 188.655 51.6163 189.159 51.6163C190.263 51.6163 191.061 51.4003 191.553 50.9683C192.057 50.5483 192.309 49.8223 192.309 48.7903V48.1783ZM192.291 41.0863C192.087 41.0263 191.823 40.9723 191.499 40.9243C191.175 40.8643 190.713 40.8343 190.113 40.8343C189.609 40.8343 189.159 40.9243 188.763 41.1043C188.379 41.2723 188.049 41.5183 187.773 41.8423C187.497 42.1543 187.287 42.5323 187.143 42.9763C186.999 43.4083 186.927 43.8883 186.927 44.4163C186.927 45.0283 187.011 45.5563 187.179 46.0003C187.347 46.4323 187.563 46.7863 187.827 47.0623C188.103 47.3383 188.415 47.5423 188.763 47.6743C189.111 47.7943 189.465 47.8543 189.825 47.8543C190.353 47.8543 190.833 47.7763 191.265 47.6203C191.709 47.4643 192.051 47.2843 192.291 47.0803V41.0863ZM204.5 44.6143C204.5 45.3463 204.392 46.0123 204.176 46.6123C203.972 47.2123 203.678 47.7223 203.294 48.1423C202.922 48.5623 202.478 48.8923 201.962 49.1323C201.446 49.3603 200.876 49.4743 200.252 49.4743C199.628 49.4743 199.058 49.3603 198.542 49.1323C198.026 48.8923 197.576 48.5623 197.192 48.1423C196.82 47.7223 196.526 47.2123 196.31 46.6123C196.106 46.0123 196.004 45.3463 196.004 44.6143C196.004 43.8823 196.106 43.2163 196.31 42.6163C196.526 42.0163 196.82 41.5063 197.192 41.0863C197.576 40.6543 198.026 40.3243 198.542 40.0963C199.058 39.8563 199.628 39.7363 200.252 39.7363C200.876 39.7363 201.446 39.8563 201.962 40.0963C202.478 40.3243 202.922 40.6543 203.294 41.0863C203.678 41.5063 203.972 42.0163 204.176 42.6163C204.392 43.2163 204.5 43.8823 204.5 44.6143ZM203.258 44.6143C203.258 43.4503 202.988 42.5263 202.448 41.8423C201.908 41.1463 201.176 40.7983 200.252 40.7983C199.328 40.7983 198.596 41.1463 198.056 41.8423C197.516 42.5263 197.246 43.4503 197.246 44.6143C197.246 45.7783 197.516 46.7023 198.056 47.3863C198.596 48.0703 199.328 48.4123 200.252 48.4123C201.176 48.4123 201.908 48.0703 202.448 47.3863C202.988 46.7023 203.258 45.7783 203.258 44.6143ZM208.586 40.2583C208.586 40.7743 208.574 41.2603 208.55 41.7163C208.538 42.1603 208.514 42.5923 208.478 43.0123C208.442 43.4323 208.4 43.8403 208.352 44.2363C208.316 44.6323 208.274 45.0283 208.226 45.4243H207.686C207.578 44.6203 207.488 43.8163 207.416 43.0123C207.356 42.2083 207.326 41.2903 207.326 40.2583V36.7843H208.586V40.2583ZM208.946 48.4843C208.946 48.7603 208.856 48.9943 208.676 49.1863C208.508 49.3783 208.268 49.4743 207.956 49.4743C207.644 49.4743 207.398 49.3783 207.218 49.1863C207.05 48.9943 206.966 48.7603 206.966 48.4843C206.966 48.2083 207.05 47.9743 207.218 47.7823C207.398 47.5903 207.644 47.4943 207.956 47.4943C208.268 47.4943 208.508 47.5903 208.676 47.7823C208.856 47.9743 208.946 48.2083 208.946 48.4843Z" fill="white"/>
</svg>
