<svg width="27" height="26" viewBox="0 0 27 26" fill="none" xmlns="http://www.w3.org/2000/svg">
<path d="M10.6578 19.0198L19.2839 10.4972C19.6431 10.1515 20.0899 9.90771 20.5774 9.79156C21.0649 9.6754 21.5751 9.69115 22.0543 9.83715C22.4819 9.9601 22.9312 9.99016 23.3716 9.9253C23.812 9.86043 24.233 9.70217 24.6056 9.46138C24.9783 9.22058 25.2938 8.90296 25.5304 8.53032C25.7671 8.15768 25.9193 7.73886 25.9766 7.3026C26.034 6.86635 25.9951 6.423 25.8626 6.003C25.7301 5.583 25.5072 5.19631 25.2092 4.86946C24.9112 4.54262 24.5451 4.28337 24.1361 4.10952C23.727 3.93567 23.2848 3.85134 22.8397 3.86232C22.8517 3.42223 22.7669 2.98481 22.5909 2.58034C22.415 2.17586 22.1522 1.814 21.8207 1.51979C21.3217 1.07647 20.6901 0.805867 20.0216 0.74896C19.353 0.692053 18.6839 0.851942 18.1155 1.20441C17.5472 1.55689 17.1105 2.08274 16.8718 2.70235C16.633 3.32195 16.6051 4.00155 16.7923 4.63823C16.94 5.11169 16.956 5.61575 16.8384 6.09741C16.7209 6.57907 16.4741 7.02054 16.1242 7.37541L7.49806 15.899C7.13887 16.2448 6.69204 16.4885 6.20453 16.6047C5.71702 16.7208 5.20685 16.7051 4.72763 16.5591C4.29998 16.4356 3.85034 16.4051 3.40962 16.4697C2.9689 16.5342 2.54756 16.6923 2.17456 16.933C1.80156 17.1738 1.48575 17.4915 1.24884 17.8643C1.01193 18.2371 0.859548 18.6561 0.802162 19.0927C0.744776 19.5292 0.783749 19.9728 0.916404 20.393C1.04906 20.8133 1.27225 21.2001 1.57062 21.527C1.869 21.8539 2.23549 22.1131 2.6449 22.2867C3.0543 22.4604 3.49691 22.5444 3.9423 22.5329C3.93018 22.973 4.01503 23.4105 4.19097 23.8149C4.36692 24.2194 4.62975 24.5813 4.96127 24.8755C5.46019 25.3189 6.09181 25.5897 6.76045 25.6467C7.42909 25.7037 8.09831 25.5438 8.66673 25.1913C9.23515 24.8388 9.6718 24.3128 9.91053 23.6931C10.1493 23.0734 10.177 22.3937 9.9897 21.757C9.84192 21.2836 9.82598 20.7795 9.94355 20.2978C10.0611 19.8162 10.3078 19.3747 10.6578 19.0198Z" fill="#5BBA6F"/>
<path d="M22.9168 8.26554C22.7862 8.26578 22.6563 8.24794 22.5307 8.21253C22.4416 8.18579 22.3667 8.12545 22.3223 8.04457C22.2778 7.96369 22.2674 7.86877 22.2933 7.78035C22.3192 7.69194 22.3792 7.61716 22.4605 7.57218C22.5418 7.5272 22.6377 7.51565 22.7275 7.54004C22.8481 7.57408 22.9758 7.57424 23.0965 7.54049C23.2171 7.50675 23.3258 7.44044 23.4104 7.34901C23.5166 7.2268 23.5752 7.07119 23.5756 6.91013C23.5761 6.74907 23.5185 6.59312 23.413 6.47029C23.3819 6.43614 23.3578 6.39626 23.3423 6.35293C23.3267 6.3096 23.3199 6.26366 23.3223 6.21775C23.3272 6.12502 23.3691 6.03799 23.4389 5.97582C23.5087 5.91364 23.6007 5.88141 23.6945 5.88621C23.7884 5.89101 23.8765 5.93245 23.9394 6.00142C24.1615 6.25419 24.2833 6.57791 24.2822 6.9126C24.2812 7.24729 24.1574 7.57027 23.9337 7.82168C23.8056 7.96243 23.6487 8.07476 23.4734 8.15127C23.2981 8.22778 23.1084 8.26672 22.9168 8.26554Z" fill="#137547"/>
</svg>
