<svg width="25" height="26" viewBox="0 0 25 26" fill="none" xmlns="http://www.w3.org/2000/svg">
<path d="M17.197 11.1687C15.4275 9.9489 13.2296 9.78154 11.3175 10.7212C9.40542 11.6608 8.08833 13.5556 7.79403 15.7897L7.08462 21.1729C6.96688 22.066 7.11718 22.9572 7.51888 23.7497C7.92069 24.5423 8.53639 25.1616 9.29954 25.5414C10.0629 25.9204 10.9016 26.0237 11.7253 25.8401C12.5489 25.6566 13.2798 25.2029 13.839 24.5286L13.8763 24.4832C15.2906 22.8032 17.3071 21.8212 19.4186 21.7867C19.9632 21.7776 20.4897 21.6497 20.9744 21.4115C21.2379 21.282 21.4892 21.1196 21.7245 20.9264C22.392 20.3774 22.8668 19.6285 23.0978 18.7606C23.3285 17.8932 23.2935 16.9882 22.9964 16.1439C22.6993 15.2996 22.1684 14.5956 21.4608 14.1077L17.197 11.1687Z" fill="#5BBA6F"/>
<path d="M5.97473 16.6771C6.58434 16.0088 6.87328 15.0931 6.78809 14.0988C6.70726 13.1525 6.29247 12.2432 5.61988 11.5382C4.94732 10.834 4.09029 10.4104 3.20645 10.3454C2.2781 10.2772 1.43138 10.608 0.823252 11.2764C-0.400853 12.6193 -0.24153 14.924 1.17903 16.4147C2.31156 17.6003 3.90687 17.9161 5.12728 17.3163C5.4389 17.1632 5.72606 16.9503 5.97473 16.6771Z" fill="#5BBA6F"/>
<path d="M9.40736 11.0458C11.2648 10.133 11.9873 7.54345 11.0177 5.27344C10.048 3.00276 7.7479 1.89819 5.89038 2.81102C4.0331 3.72375 3.31099 6.31353 4.28075 8.58421C5.25027 10.8543 7.55004 11.9585 9.40736 11.0458Z" fill="#5BBA6F"/>
<path d="M15.6569 9.19828L15.6571 9.19817C15.9862 9.15953 16.2984 9.06483 16.5888 8.92224C17.9434 8.25652 18.8118 6.55015 18.6213 4.67718C18.5118 3.59899 18.0703 2.61906 17.378 1.91809C16.6535 1.18418 15.7445 0.839736 14.8183 0.948149C13.8919 1.05665 13.0735 1.60348 12.5136 2.48769C11.9786 3.33235 11.7447 4.39133 11.8545 5.46932C12.0859 7.74363 13.7916 9.41641 15.6569 9.19828Z" fill="#5BBA6F"/>
<path d="M22.5457 5.23147L22.545 5.23114C20.8306 4.84565 19.1027 6.22708 18.6933 8.31123C18.2852 10.3956 19.347 12.4064 21.0598 12.7937C21.6846 12.9352 22.3114 12.8415 22.8755 12.5642C23.8587 12.081 24.6516 11.0401 24.9127 9.71425C25.3206 7.62988 24.2589 5.61895 22.5457 5.23147Z" fill="#5BBA6F"/>
</svg>
