<svg width="39" height="36" viewBox="0 0 39 36" fill="none" xmlns="http://www.w3.org/2000/svg">
<path d="M19.2494 18.652C26.9135 21.6403 34.2299 21.3006 35.591 17.8931C36.9521 14.4857 31.8424 9.30084 24.1783 6.3125C16.5142 3.32417 9.19789 3.66393 7.83681 7.07139C6.47573 10.4789 11.5853 15.6637 19.2494 18.652Z" fill="#453026"/>
<path d="M34.7002 19.1296C32.2011 21.3307 25.8543 21.2273 19.2495 18.652C12.6447 16.0767 7.93699 11.8698 7.63291 8.57569L7.63457 8.57555C10.1348 6.37567 16.4797 6.47986 23.0831 9.05462C29.6858 11.6291 34.3926 15.8341 34.6993 19.1277L34.7002 19.1296Z" fill="#58392F"/>
<path d="M35.591 17.8931L31.2097 28.8615C29.8485 32.2693 22.5325 32.6089 14.8682 29.6204C7.20384 26.632 2.09433 21.4476 3.45553 18.0398L7.83679 7.07138C6.47559 10.4791 11.5851 15.6636 19.2494 18.652C26.9137 21.6404 34.2297 21.3009 35.591 17.8931Z" fill="#FF6000"/>
<path d="M19.2494 18.652C18.7811 18.4694 18.3226 18.278 17.874 18.0801C17.4095 17.9219 16.9423 17.7524 16.474 17.5698C11.9272 15.797 8.29371 13.2512 6.36249 10.7623L3.45552 18.0398C2.17756 21.2392 6.60444 26.0045 13.4928 29.0485C20.6286 31.4728 27.1563 30.9787 28.4343 27.7794L31.3412 20.5018C28.2101 21.0169 23.7962 20.4249 19.2494 18.652Z" fill="#FF6D00"/>
<path d="M12.768 24.8401L9.45477 23.0506C8.33258 22.4451 7.84318 21.1086 8.31252 19.9336C8.78186 18.7586 10.0632 18.1126 11.3015 18.4274L14.9587 19.3558L12.768 24.8401Z" fill="#DEE2E6"/>
<path d="M24.6093 13.8346L26.5444 13.0048L27.1387 14.3575L25.2036 15.1874L24.6093 13.8346Z" fill="#453026"/>
<path d="M26.027 16.308L27.3962 15.7208L28.4464 18.1113L27.0772 18.6985L26.027 16.308Z" fill="#453026"/>
<path d="M17.9711 11.8144L19.3588 12.3555L18.8114 13.7258L17.4237 13.1848L17.9711 11.8144Z" fill="#453026"/>
<path d="M21.1613 12.4296L22.5304 11.8424L23.5806 14.2329L22.2115 14.8201L21.1613 12.4296Z" fill="#453026"/>
<path d="M15.0346 9.70578L16.4859 9.0834L17.0802 10.4362L15.6289 11.0585L15.0346 9.70578Z" fill="#453026"/>
<path d="M11.5026 9.5162L12.9539 8.89382L13.5482 10.2466L12.0969 10.869L11.5026 9.5162Z" fill="#453026"/>
<path d="M19.0663 9.0723L21.8418 10.1545L21.2944 11.5248L18.519 10.4427L19.0663 9.0723Z" fill="#453026"/>
<path d="M18.5373 14.412L21.3127 15.4942L20.7653 16.8646L17.9899 15.7824L18.5373 14.412Z" fill="#453026"/>
<path d="M13.2603 11.5622L16.0357 12.6444L15.4883 14.0147L12.7129 12.9326L13.2603 11.5622Z" fill="#453026"/>
<path d="M23.3943 16.3058L26.1697 17.388L25.6223 18.7584L22.8469 17.6762L23.3943 16.3058Z" fill="#453026"/>
<path d="M29.3466 15.4575L32.122 16.5397L31.5746 17.9101L28.7992 16.8279L29.3466 15.4575Z" fill="#453026"/>
<path d="M25.6589 26.6972L27.448 24.2257L23.5052 25.0644L21.0753 24.1169L21.3491 23.4314L19.9621 22.8906L19.6883 23.5761L18.9937 23.3053L19.5414 21.9343L18.1544 21.3934L17.6067 22.7645L16.9129 22.4939L17.7343 20.4374L16.3466 19.8963L15.5251 21.9529L14.1374 21.4118L13.5901 22.7821L14.9778 23.3232L14.1563 25.3798L15.544 25.9209L16.3655 23.8643L17.0593 24.1349L16.5117 25.5059L17.8987 26.0467L18.4463 24.6757L19.1409 24.9465L18.8671 25.632L20.2541 26.1728L20.5279 25.4873L22.955 26.4337L25.2574 29.7099L25.6589 26.6972Z" fill="#DEE2E6"/>
</svg>
