<svg width="23" height="22" viewBox="0 0 23 22" fill="none" xmlns="http://www.w3.org/2000/svg">
<path d="M19.2362 9.04245C19.2885 8.56518 19.2478 8.07048 19.0748 7.58607C18.4648 5.87847 16.5893 4.97588 14.8857 5.56993L13.9342 5.90172C14.1844 4.98959 14.3122 3.96441 13.9627 2.98605C13.0993 0.569184 9.81974 -0.486587 7.77371 0.226874C8.42124 2.0395 8.18055 3.56192 5.79356 4.39427C3.66479 5.13659 2.29597 7.60235 2.63458 9.84196L2.54722 9.87242C0.843664 10.4665 -0.0429349 12.3322 0.56707 14.0398C0.740115 14.5242 1.02273 14.9346 1.3667 15.2736C0.49717 16.3393 0.181406 17.8155 0.681459 19.2153C1.44392 21.3497 3.78829 22.4781 5.91781 21.7355L19.7986 16.8952C21.9281 16.1526 23.0362 13.8203 22.2738 11.6859C21.7737 10.2861 20.5901 9.33281 19.2362 9.04246L19.2362 9.04245Z" fill="#453026"/>
</svg>
